<?xml version="1.0" encoding="UTF-8"?>
<svg xmlns="http://www.w3.org/2000/svg" width="1536" height="1024" viewBox="0 0 1536 1024">
  <!-- K=5, downscaled quantization, fill-rule=evenodd -->
  <path fill="#074270" stroke="none" fill-rule="evenodd" d="M 447.0,774.0 L 446.0,775.0 L 446.0,786.0 L 444.0,788.0 L 433.0,788.0 L 432.0,789.0 L 432.0,796.0 L 433.0,797.0 L 444.0,797.0 L 446.0,799.0 L 446.0,810.0 L 447.0,811.0 L 454.0,811.0 L 455.0,810.0 L 455.0,799.0 L 457.0,797.0 L 468.0,797.0 L 469.0,796.0 L 469.0,789.0 L 468.0,788.0 L 457.0,788.0 L 455.0,786.0 L 455.0,775.0 L 454.0,774.0 Z"/>
  <path fill="#074270" stroke="none" fill-rule="evenodd" d="M 1107.0,758.0 L 1101.0,761.0 L 1101.0,762.0 L 1099.0,763.0 L 1098.0,765.0 L 1097.0,765.0 L 1094.0,771.0 L 1094.0,786.0 L 1095.0,788.0 L 1096.0,788.0 L 1097.0,790.0 L 1098.0,790.0 L 1099.0,792.0 L 1100.0,792.0 L 1101.0,794.0 L 1102.0,794.0 L 1103.0,796.0 L 1105.0,797.0 L 1120.0,797.0 L 1124.0,795.0 L 1126.0,797.0 L 1126.0,798.0 L 1120.0,809.0 L 1114.0,812.0 L 1109.0,812.0 L 1106.0,810.0 L 1101.0,810.0 L 1099.0,811.0 L 1098.0,813.0 L 1097.0,813.0 L 1096.0,816.0 L 1105.0,821.0 L 1118.0,821.0 L 1128.0,816.0 L 1128.0,815.0 L 1130.0,814.0 L 1132.0,809.0 L 1134.0,808.0 L 1135.0,806.0 L 1135.0,803.0 L 1137.0,800.0 L 1137.0,775.0 L 1135.0,772.0 L 1135.0,769.0 L 1134.0,767.0 L 1133.0,767.0 L 1132.0,765.0 L 1131.0,765.0 L 1130.0,763.0 L 1129.0,763.0 L 1128.0,761.0 L 1126.0,760.0 L 1126.0,759.0 L 1124.0,758.0 Z M 1106.0,771.0 L 1107.0,770.0 L 1108.0,770.0 L 1108.0,769.0 L 1109.0,768.0 L 1110.0,768.0 L 1111.0,767.0 L 1120.0,767.0 L 1121.0,768.0 L 1122.0,768.0 L 1123.0,769.0 L 1123.0,770.0 L 1124.0,771.0 L 1124.0,772.0 L 1125.0,773.0 L 1125.0,774.0 L 1126.0,775.0 L 1126.0,784.0 L 1124.0,786.0 L 1123.0,786.0 L 1122.0,787.0 L 1121.0,787.0 L 1120.0,788.0 L 1109.0,788.0 L 1107.0,786.0 L 1107.0,785.0 L 1106.0,784.0 L 1106.0,783.0 L 1105.0,782.0 L 1105.0,773.0 L 1106.0,772.0 Z"/>
  <path fill="#074270" stroke="none" fill-rule="evenodd" d="M 1049.0,758.0 L 1047.0,759.0 L 1046.0,761.0 L 1041.0,763.0 L 1038.0,769.0 L 1038.0,772.0 L 1036.0,775.0 L 1036.0,782.0 L 1041.0,792.0 L 1042.0,792.0 L 1043.0,794.0 L 1049.0,797.0 L 1064.0,797.0 L 1068.0,795.0 L 1069.0,796.0 L 1069.0,798.0 L 1068.0,799.0 L 1068.0,802.0 L 1064.0,809.0 L 1058.0,812.0 L 1053.0,812.0 L 1050.0,810.0 L 1043.0,810.0 L 1041.0,811.0 L 1040.0,813.0 L 1039.0,813.0 L 1039.0,816.0 L 1040.0,816.0 L 1041.0,818.0 L 1043.0,819.0 L 1046.0,819.0 L 1049.0,821.0 L 1062.0,821.0 L 1072.0,816.0 L 1072.0,815.0 L 1074.0,814.0 L 1079.0,804.0 L 1079.0,801.0 L 1081.0,798.0 L 1081.0,775.0 L 1076.0,765.0 L 1075.0,765.0 L 1074.0,763.0 L 1072.0,762.0 L 1072.0,761.0 L 1066.0,758.0 Z M 1051.0,769.0 L 1052.0,769.0 L 1053.0,768.0 L 1054.0,768.0 L 1055.0,767.0 L 1062.0,767.0 L 1063.0,768.0 L 1064.0,768.0 L 1065.0,769.0 L 1065.0,770.0 L 1066.0,770.0 L 1067.0,771.0 L 1067.0,772.0 L 1068.0,773.0 L 1068.0,774.0 L 1069.0,775.0 L 1069.0,776.0 L 1070.0,777.0 L 1070.0,782.0 L 1069.0,783.0 L 1069.0,784.0 L 1068.0,785.0 L 1067.0,785.0 L 1067.0,786.0 L 1066.0,787.0 L 1065.0,787.0 L 1064.0,788.0 L 1053.0,788.0 L 1052.0,787.0 L 1051.0,787.0 L 1050.0,786.0 L 1050.0,785.0 L 1049.0,784.0 L 1049.0,783.0 L 1048.0,782.0 L 1048.0,781.0 L 1047.0,780.0 L 1047.0,775.0 L 1048.0,774.0 L 1048.0,773.0 L 1049.0,772.0 L 1049.0,771.0 Z"/>
  <path fill="#074270" stroke="none" fill-rule="evenodd" d="M 1009.0,758.0 L 1008.0,759.0 L 1007.0,759.0 L 1006.0,760.0 L 1003.0,761.0 L 1003.0,762.0 L 1002.0,763.0 L 1001.0,763.0 L 1000.0,764.0 L 999.0,764.0 L 998.0,765.0 L 995.0,766.0 L 994.0,767.0 L 994.0,770.0 L 997.0,775.0 L 998.0,775.0 L 999.0,774.0 L 1000.0,774.0 L 1005.0,771.0 L 1008.0,771.0 L 1010.0,773.0 L 1010.0,820.0 L 1011.0,821.0 L 1018.0,821.0 L 1019.0,820.0 L 1020.0,820.0 L 1020.0,819.0 L 1021.0,818.0 L 1021.0,759.0 L 1020.0,758.0 Z"/>
  <path fill="#074270" stroke="none" fill-rule="evenodd" d="M 931.0,758.0 L 925.0,761.0 L 925.0,762.0 L 923.0,763.0 L 922.0,765.0 L 921.0,765.0 L 918.0,771.0 L 918.0,784.0 L 921.0,790.0 L 922.0,790.0 L 923.0,792.0 L 925.0,793.0 L 925.0,794.0 L 931.0,797.0 L 944.0,797.0 L 948.0,795.0 L 950.0,797.0 L 950.0,800.0 L 947.0,806.0 L 945.0,807.0 L 944.0,809.0 L 938.0,812.0 L 933.0,812.0 L 930.0,810.0 L 925.0,810.0 L 923.0,811.0 L 922.0,813.0 L 921.0,813.0 L 920.0,816.0 L 929.0,821.0 L 942.0,821.0 L 945.0,819.0 L 948.0,819.0 L 950.0,818.0 L 950.0,817.0 L 952.0,816.0 L 952.0,815.0 L 954.0,814.0 L 955.0,812.0 L 956.0,812.0 L 961.0,802.0 L 961.0,795.0 L 963.0,792.0 L 963.0,781.0 L 961.0,778.0 L 961.0,773.0 L 956.0,763.0 L 955.0,763.0 L 954.0,761.0 L 948.0,758.0 Z M 933.0,768.0 L 934.0,768.0 L 935.0,767.0 L 944.0,767.0 L 945.0,768.0 L 946.0,768.0 L 947.0,769.0 L 947.0,770.0 L 948.0,771.0 L 948.0,772.0 L 949.0,773.0 L 949.0,774.0 L 950.0,775.0 L 950.0,784.0 L 949.0,785.0 L 949.0,786.0 L 948.0,787.0 L 947.0,787.0 L 946.0,788.0 L 935.0,788.0 L 934.0,787.0 L 933.0,787.0 L 932.0,786.0 L 932.0,785.0 L 931.0,785.0 L 930.0,784.0 L 930.0,783.0 L 929.0,782.0 L 929.0,773.0 L 930.0,772.0 L 930.0,771.0 L 931.0,770.0 L 932.0,770.0 L 932.0,769.0 Z"/>
  <path fill="#074270" stroke="none" fill-rule="evenodd" d="M 873.0,758.0 L 872.0,759.0 L 867.0,761.0 L 867.0,762.0 L 866.0,763.0 L 865.0,763.0 L 865.0,764.0 L 864.0,765.0 L 863.0,765.0 L 863.0,766.0 L 862.0,767.0 L 861.0,767.0 L 861.0,768.0 L 858.0,773.0 L 858.0,778.0 L 856.0,781.0 L 856.0,796.0 L 858.0,799.0 L 858.0,804.0 L 859.0,805.0 L 861.0,810.0 L 862.0,810.0 L 863.0,811.0 L 863.0,812.0 L 864.0,812.0 L 865.0,813.0 L 865.0,814.0 L 866.0,814.0 L 867.0,815.0 L 867.0,816.0 L 868.0,816.0 L 869.0,817.0 L 869.0,818.0 L 870.0,818.0 L 871.0,819.0 L 874.0,819.0 L 877.0,821.0 L 886.0,821.0 L 889.0,819.0 L 892.0,819.0 L 893.0,818.0 L 894.0,818.0 L 894.0,817.0 L 895.0,816.0 L 896.0,816.0 L 896.0,815.0 L 897.0,814.0 L 898.0,814.0 L 898.0,813.0 L 899.0,812.0 L 900.0,812.0 L 900.0,811.0 L 903.0,806.0 L 903.0,803.0 L 905.0,800.0 L 905.0,777.0 L 903.0,774.0 L 903.0,771.0 L 902.0,770.0 L 900.0,765.0 L 899.0,765.0 L 898.0,764.0 L 898.0,763.0 L 897.0,763.0 L 896.0,762.0 L 896.0,761.0 L 895.0,761.0 L 890.0,758.0 Z M 877.0,767.0 L 884.0,767.0 L 885.0,768.0 L 886.0,768.0 L 887.0,769.0 L 888.0,769.0 L 890.0,771.0 L 890.0,772.0 L 891.0,773.0 L 891.0,774.0 L 892.0,775.0 L 892.0,776.0 L 893.0,777.0 L 893.0,778.0 L 894.0,779.0 L 894.0,798.0 L 893.0,799.0 L 893.0,800.0 L 892.0,801.0 L 892.0,804.0 L 891.0,805.0 L 891.0,806.0 L 890.0,807.0 L 889.0,807.0 L 889.0,808.0 L 888.0,809.0 L 887.0,809.0 L 886.0,810.0 L 885.0,810.0 L 884.0,811.0 L 883.0,811.0 L 882.0,812.0 L 881.0,812.0 L 880.0,811.0 L 879.0,811.0 L 878.0,810.0 L 877.0,810.0 L 876.0,809.0 L 875.0,809.0 L 874.0,808.0 L 874.0,807.0 L 873.0,807.0 L 872.0,806.0 L 872.0,805.0 L 871.0,805.0 L 870.0,804.0 L 870.0,803.0 L 869.0,802.0 L 869.0,795.0 L 868.0,794.0 L 868.0,793.0 L 867.0,792.0 L 867.0,785.0 L 868.0,784.0 L 868.0,783.0 L 869.0,782.0 L 869.0,777.0 L 870.0,776.0 L 870.0,775.0 L 871.0,774.0 L 871.0,773.0 L 872.0,772.0 L 872.0,771.0 L 873.0,770.0 L 874.0,770.0 L 874.0,769.0 L 875.0,768.0 L 876.0,768.0 Z"/>
  <path fill="#074270" stroke="none" fill-rule="evenodd" d="M 807.0,758.0 L 806.0,759.0 L 806.0,766.0 L 804.0,769.0 L 804.0,790.0 L 812.0,793.0 L 819.0,789.0 L 826.0,789.0 L 831.0,793.0 L 834.0,799.0 L 834.0,802.0 L 831.0,808.0 L 824.0,812.0 L 819.0,812.0 L 813.0,809.0 L 812.0,807.0 L 810.0,806.0 L 803.0,809.0 L 802.0,812.0 L 803.0,814.0 L 807.0,817.0 L 807.0,818.0 L 812.0,819.0 L 815.0,821.0 L 828.0,821.0 L 831.0,819.0 L 834.0,819.0 L 836.0,818.0 L 836.0,817.0 L 838.0,816.0 L 838.0,815.0 L 840.0,814.0 L 843.0,810.0 L 843.0,807.0 L 845.0,804.0 L 845.0,795.0 L 840.0,785.0 L 830.0,780.0 L 821.0,780.0 L 817.0,782.0 L 815.0,780.0 L 815.0,771.0 L 816.0,769.0 L 819.0,767.0 L 842.0,767.0 L 843.0,766.0 L 843.0,761.0 L 842.0,759.0 L 840.0,758.0 Z"/>
  <path fill="#074270" stroke="none" fill-rule="evenodd" d="M 764.0,758.0 L 727.0,758.0 L 726.0,759.0 L 726.0,766.0 L 727.0,767.0 L 750.0,767.0 L 752.0,769.0 L 752.0,774.0 L 746.0,785.0 L 746.0,788.0 L 740.0,799.0 L 740.0,802.0 L 734.0,813.0 L 734.0,816.0 L 732.0,819.0 L 732.0,820.0 L 733.0,821.0 L 740.0,821.0 L 741.0,820.0 L 742.0,820.0 L 742.0,819.0 L 743.0,818.0 L 744.0,818.0 L 744.0,817.0 L 747.0,812.0 L 747.0,809.0 L 753.0,798.0 L 753.0,795.0 L 757.0,788.0 L 757.0,785.0 L 765.0,770.0 L 765.0,759.0 Z"/>
  <path fill="#074270" stroke="none" fill-rule="evenodd" d="M 695.0,758.0 L 694.0,759.0 L 693.0,759.0 L 693.0,760.0 L 692.0,761.0 L 691.0,761.0 L 690.0,762.0 L 689.0,762.0 L 688.0,763.0 L 687.0,763.0 L 686.0,764.0 L 685.0,764.0 L 684.0,765.0 L 681.0,766.0 L 680.0,767.0 L 680.0,770.0 L 683.0,775.0 L 684.0,775.0 L 685.0,774.0 L 686.0,774.0 L 691.0,771.0 L 694.0,771.0 L 696.0,773.0 L 696.0,820.0 L 697.0,821.0 L 704.0,821.0 L 705.0,820.0 L 706.0,820.0 L 706.0,819.0 L 707.0,818.0 L 707.0,761.0 L 706.0,760.0 L 706.0,759.0 L 705.0,759.0 L 704.0,758.0 Z"/>
  <path fill="#074270" stroke="none" fill-rule="evenodd" d="M 631.0,758.0 L 628.0,763.0 L 628.0,782.0 L 626.0,785.0 L 627.0,790.0 L 632.0,791.0 L 636.0,793.0 L 643.0,789.0 L 650.0,789.0 L 652.0,790.0 L 656.0,795.0 L 656.0,804.0 L 655.0,806.0 L 648.0,812.0 L 643.0,812.0 L 637.0,809.0 L 636.0,807.0 L 634.0,806.0 L 627.0,809.0 L 626.0,812.0 L 627.0,814.0 L 631.0,817.0 L 631.0,818.0 L 636.0,819.0 L 639.0,821.0 L 650.0,821.0 L 653.0,819.0 L 656.0,819.0 L 662.0,816.0 L 662.0,815.0 L 664.0,814.0 L 667.0,808.0 L 667.0,805.0 L 669.0,802.0 L 669.0,799.0 L 667.0,796.0 L 667.0,791.0 L 666.0,789.0 L 665.0,789.0 L 664.0,787.0 L 660.0,784.0 L 660.0,783.0 L 654.0,780.0 L 643.0,780.0 L 639.0,782.0 L 637.0,780.0 L 637.0,775.0 L 639.0,772.0 L 639.0,769.0 L 641.0,767.0 L 664.0,767.0 L 665.0,766.0 L 665.0,759.0 L 664.0,758.0 Z"/>
  <path fill="#074270" stroke="none" fill-rule="evenodd" d="M 557.0,758.0 L 556.0,759.0 L 551.0,761.0 L 551.0,762.0 L 550.0,763.0 L 549.0,763.0 L 549.0,764.0 L 546.0,769.0 L 546.0,780.0 L 547.0,781.0 L 547.0,782.0 L 548.0,782.0 L 549.0,783.0 L 549.0,784.0 L 550.0,784.0 L 551.0,785.0 L 552.0,788.0 L 551.0,789.0 L 551.0,790.0 L 550.0,791.0 L 549.0,791.0 L 549.0,792.0 L 548.0,793.0 L 547.0,793.0 L 547.0,794.0 L 546.0,795.0 L 545.0,795.0 L 545.0,796.0 L 542.0,801.0 L 542.0,806.0 L 543.0,807.0 L 547.0,816.0 L 548.0,816.0 L 553.0,819.0 L 556.0,819.0 L 559.0,821.0 L 574.0,821.0 L 575.0,820.0 L 584.0,816.0 L 584.0,815.0 L 585.0,814.0 L 586.0,814.0 L 586.0,813.0 L 589.0,808.0 L 589.0,799.0 L 588.0,798.0 L 586.0,793.0 L 585.0,793.0 L 584.0,792.0 L 584.0,791.0 L 583.0,791.0 L 581.0,788.0 L 582.0,785.0 L 583.0,784.0 L 584.0,784.0 L 584.0,783.0 L 587.0,778.0 L 587.0,771.0 L 586.0,770.0 L 584.0,765.0 L 583.0,765.0 L 582.0,764.0 L 582.0,763.0 L 581.0,763.0 L 580.0,762.0 L 580.0,761.0 L 579.0,761.0 L 578.0,760.0 L 578.0,759.0 L 577.0,759.0 L 576.0,758.0 Z M 555.0,799.0 L 556.0,798.0 L 556.0,797.0 L 557.0,796.0 L 558.0,796.0 L 558.0,795.0 L 559.0,794.0 L 560.0,794.0 L 561.0,793.0 L 572.0,793.0 L 573.0,794.0 L 574.0,794.0 L 575.0,795.0 L 575.0,796.0 L 576.0,796.0 L 577.0,797.0 L 577.0,798.0 L 578.0,799.0 L 578.0,806.0 L 577.0,807.0 L 577.0,808.0 L 576.0,809.0 L 575.0,809.0 L 574.0,810.0 L 573.0,810.0 L 572.0,811.0 L 571.0,811.0 L 570.0,812.0 L 561.0,812.0 L 560.0,811.0 L 559.0,811.0 L 558.0,810.0 L 558.0,809.0 L 557.0,809.0 L 556.0,808.0 L 556.0,807.0 L 555.0,806.0 Z M 559.0,768.0 L 560.0,768.0 L 561.0,767.0 L 564.0,767.0 L 565.0,766.0 L 568.0,766.0 L 569.0,767.0 L 570.0,767.0 L 571.0,768.0 L 572.0,768.0 L 573.0,769.0 L 573.0,770.0 L 574.0,770.0 L 575.0,771.0 L 575.0,772.0 L 576.0,773.0 L 576.0,778.0 L 575.0,779.0 L 575.0,780.0 L 574.0,781.0 L 573.0,781.0 L 573.0,782.0 L 572.0,783.0 L 571.0,783.0 L 570.0,784.0 L 561.0,784.0 L 560.0,783.0 L 559.0,783.0 L 558.0,782.0 L 558.0,781.0 L 557.0,780.0 L 557.0,771.0 L 558.0,770.0 L 558.0,769.0 Z"/>
  <path fill="#074270" stroke="none" fill-rule="evenodd" d="M 513.0,758.0 L 512.0,759.0 L 511.0,759.0 L 509.0,764.0 L 508.0,765.0 L 507.0,765.0 L 507.0,766.0 L 506.0,767.0 L 505.0,767.0 L 503.0,772.0 L 502.0,773.0 L 501.0,773.0 L 501.0,774.0 L 500.0,775.0 L 499.0,775.0 L 497.0,780.0 L 496.0,781.0 L 495.0,781.0 L 495.0,782.0 L 494.0,783.0 L 493.0,783.0 L 491.0,788.0 L 490.0,789.0 L 489.0,789.0 L 487.0,794.0 L 486.0,795.0 L 485.0,795.0 L 485.0,796.0 L 484.0,797.0 L 484.0,806.0 L 485.0,807.0 L 512.0,807.0 L 514.0,809.0 L 514.0,818.0 L 515.0,819.0 L 515.0,820.0 L 520.0,820.0 L 521.0,821.0 L 522.0,821.0 L 523.0,820.0 L 523.0,811.0 L 525.0,808.0 L 526.0,808.0 L 527.0,807.0 L 530.0,807.0 L 531.0,806.0 L 531.0,799.0 L 530.0,798.0 L 525.0,798.0 L 523.0,796.0 L 523.0,759.0 L 522.0,758.0 Z M 513.0,772.0 L 514.0,773.0 L 514.0,796.0 L 512.0,798.0 L 497.0,798.0 L 496.0,797.0 L 496.0,795.0 L 497.0,794.0 L 497.0,793.0 L 498.0,792.0 L 498.0,791.0 L 499.0,790.0 L 500.0,790.0 L 500.0,789.0 L 501.0,788.0 L 502.0,788.0 L 502.0,787.0 L 503.0,786.0 L 503.0,785.0 L 504.0,784.0 L 504.0,783.0 L 505.0,782.0 L 506.0,782.0 L 506.0,781.0 L 507.0,780.0 L 507.0,779.0 L 508.0,778.0 L 508.0,777.0 L 509.0,776.0 L 510.0,776.0 L 510.0,775.0 L 511.0,774.0 L 511.0,773.0 L 512.0,772.0 Z"/>
  <path fill="#074270" stroke="none" fill-rule="evenodd" d="M 1163.0,498.0 L 1162.0,499.0 L 1162.0,564.0 L 1163.0,565.0 L 1174.0,565.0 L 1175.0,564.0 L 1175.0,499.0 L 1174.0,498.0 Z"/>
  <path fill="#074270" stroke="none" fill-rule="evenodd" d="M 1091.0,498.0 L 1090.0,499.0 L 1090.0,508.0 L 1091.0,509.0 L 1108.0,509.0 L 1110.0,510.0 L 1112.0,513.0 L 1112.0,564.0 L 1113.0,565.0 L 1124.0,565.0 L 1125.0,564.0 L 1125.0,511.0 L 1127.0,509.0 L 1146.0,509.0 L 1147.0,508.0 L 1147.0,499.0 L 1146.0,498.0 Z"/>
  <path fill="#074270" stroke="none" fill-rule="evenodd" d="M 1015.0,498.0 L 1014.0,499.0 L 1014.0,564.0 L 1015.0,565.0 L 1026.0,565.0 L 1027.0,564.0 L 1027.0,523.0 L 1030.0,522.0 L 1033.0,528.0 L 1037.0,531.0 L 1039.0,536.0 L 1043.0,539.0 L 1045.0,544.0 L 1049.0,547.0 L 1051.0,552.0 L 1055.0,555.0 L 1057.0,560.0 L 1063.0,565.0 L 1074.0,565.0 L 1075.0,564.0 L 1075.0,499.0 L 1074.0,498.0 L 1061.0,498.0 L 1060.0,499.0 L 1060.0,534.0 L 1061.0,537.0 L 1059.0,538.0 L 1054.0,534.0 L 1052.0,529.0 L 1048.0,526.0 L 1046.0,521.0 L 1042.0,518.0 L 1040.0,513.0 L 1036.0,510.0 L 1034.0,505.0 L 1030.0,502.0 L 1028.0,498.0 Z"/>
  <path fill="#074270" stroke="none" fill-rule="evenodd" d="M 838.0,499.0 L 838.0,564.0 L 839.0,565.0 L 850.0,565.0 L 851.0,564.0 L 851.0,523.0 L 852.0,522.0 L 855.0,523.0 L 865.0,542.0 L 871.0,549.0 L 874.0,549.0 L 878.0,546.0 L 890.0,525.0 L 893.0,522.0 L 895.0,522.0 L 896.0,523.0 L 896.0,564.0 L 897.0,565.0 L 908.0,565.0 L 909.0,564.0 L 909.0,499.0 L 908.0,498.0 L 893.0,498.0 L 889.0,506.0 L 883.0,513.0 L 879.0,522.0 L 877.0,523.0 L 874.0,528.0 L 870.0,526.0 L 854.0,499.0 L 852.0,498.0 L 839.0,498.0 Z"/>
  <path fill="#074270" stroke="none" fill-rule="evenodd" d="M 771.0,498.0 L 770.0,499.0 L 770.0,558.0 L 771.0,559.0 L 771.0,564.0 L 773.0,565.0 L 818.0,565.0 L 819.0,564.0 L 819.0,555.0 L 818.0,554.0 L 789.0,554.0 L 786.0,552.0 L 785.0,550.0 L 785.0,539.0 L 787.0,537.0 L 812.0,537.0 L 814.0,536.0 L 815.0,534.0 L 815.0,527.0 L 814.0,526.0 L 787.0,526.0 L 785.0,524.0 L 785.0,511.0 L 787.0,509.0 L 818.0,509.0 L 819.0,508.0 L 819.0,499.0 L 818.0,498.0 Z"/>
  <path fill="#074270" stroke="none" fill-rule="evenodd" d="M 699.0,498.0 L 698.0,499.0 L 698.0,562.0 L 699.0,564.0 L 701.0,565.0 L 710.0,565.0 L 712.0,564.0 L 713.0,562.0 L 713.0,543.0 L 715.0,541.0 L 722.0,541.0 L 724.0,543.0 L 725.0,546.0 L 726.0,546.0 L 727.0,548.0 L 729.0,549.0 L 731.0,554.0 L 733.0,555.0 L 735.0,560.0 L 736.0,560.0 L 737.0,562.0 L 739.0,563.0 L 739.0,564.0 L 741.0,565.0 L 754.0,565.0 L 754.0,563.0 L 752.0,559.0 L 750.0,558.0 L 748.0,553.0 L 747.0,553.0 L 746.0,551.0 L 744.0,550.0 L 742.0,545.0 L 741.0,545.0 L 740.0,543.0 L 738.0,542.0 L 738.0,539.0 L 744.0,536.0 L 744.0,535.0 L 746.0,534.0 L 747.0,532.0 L 748.0,532.0 L 751.0,526.0 L 751.0,511.0 L 748.0,505.0 L 747.0,505.0 L 746.0,503.0 L 740.0,500.0 L 737.0,500.0 L 734.0,498.0 Z M 713.0,511.0 L 715.0,509.0 L 730.0,509.0 L 731.0,510.0 L 732.0,510.0 L 733.0,511.0 L 734.0,511.0 L 736.0,513.0 L 736.0,514.0 L 737.0,515.0 L 737.0,516.0 L 738.0,517.0 L 738.0,522.0 L 737.0,523.0 L 737.0,524.0 L 736.0,525.0 L 735.0,525.0 L 735.0,526.0 L 734.0,527.0 L 733.0,527.0 L 733.0,528.0 L 732.0,529.0 L 731.0,529.0 L 730.0,530.0 L 715.0,530.0 L 713.0,528.0 Z"/>
  <path fill="#074270" stroke="none" fill-rule="evenodd" d="M 1219.0,496.0 L 1216.0,498.0 L 1213.0,498.0 L 1203.0,503.0 L 1203.0,504.0 L 1201.0,505.0 L 1201.0,506.0 L 1199.0,507.0 L 1198.0,509.0 L 1197.0,509.0 L 1192.0,519.0 L 1192.0,528.0 L 1190.0,531.0 L 1192.0,535.0 L 1192.0,542.0 L 1197.0,552.0 L 1198.0,552.0 L 1199.0,554.0 L 1200.0,554.0 L 1201.0,556.0 L 1202.0,556.0 L 1203.0,558.0 L 1205.0,559.0 L 1205.0,560.0 L 1211.0,563.0 L 1214.0,563.0 L 1217.0,565.0 L 1236.0,565.0 L 1239.0,563.0 L 1242.0,563.0 L 1248.0,560.0 L 1248.0,559.0 L 1250.0,558.0 L 1250.0,557.0 L 1252.0,556.0 L 1252.0,555.0 L 1254.0,554.0 L 1254.0,553.0 L 1256.0,552.0 L 1257.0,550.0 L 1258.0,550.0 L 1259.0,548.0 L 1259.0,545.0 L 1261.0,542.0 L 1261.0,539.0 L 1263.0,536.0 L 1263.0,525.0 L 1261.0,522.0 L 1261.0,517.0 L 1258.0,511.0 L 1257.0,511.0 L 1256.0,509.0 L 1255.0,509.0 L 1254.0,507.0 L 1253.0,507.0 L 1252.0,505.0 L 1251.0,505.0 L 1250.0,503.0 L 1248.0,502.0 L 1248.0,501.0 L 1242.0,498.0 L 1239.0,498.0 L 1236.0,496.0 Z M 1225.0,507.0 L 1228.0,507.0 L 1231.0,509.0 L 1234.0,509.0 L 1235.0,510.0 L 1236.0,510.0 L 1237.0,511.0 L 1238.0,511.0 L 1239.0,512.0 L 1240.0,512.0 L 1241.0,513.0 L 1241.0,514.0 L 1242.0,514.0 L 1243.0,515.0 L 1243.0,516.0 L 1244.0,516.0 L 1245.0,517.0 L 1245.0,518.0 L 1246.0,519.0 L 1246.0,520.0 L 1248.0,523.0 L 1248.0,538.0 L 1247.0,539.0 L 1247.0,540.0 L 1246.0,541.0 L 1246.0,542.0 L 1245.0,543.0 L 1245.0,544.0 L 1244.0,545.0 L 1243.0,545.0 L 1243.0,546.0 L 1242.0,547.0 L 1241.0,547.0 L 1241.0,548.0 L 1240.0,549.0 L 1239.0,549.0 L 1239.0,550.0 L 1238.0,551.0 L 1237.0,551.0 L 1236.0,552.0 L 1235.0,552.0 L 1232.0,554.0 L 1223.0,554.0 L 1220.0,552.0 L 1217.0,552.0 L 1216.0,551.0 L 1215.0,551.0 L 1214.0,550.0 L 1214.0,549.0 L 1213.0,549.0 L 1212.0,548.0 L 1212.0,547.0 L 1211.0,547.0 L 1210.0,546.0 L 1210.0,545.0 L 1209.0,545.0 L 1208.0,544.0 L 1208.0,543.0 L 1207.0,542.0 L 1207.0,539.0 L 1205.0,536.0 L 1205.0,525.0 L 1206.0,524.0 L 1206.0,523.0 L 1207.0,522.0 L 1207.0,521.0 L 1208.0,520.0 L 1208.0,519.0 L 1209.0,518.0 L 1209.0,517.0 L 1210.0,516.0 L 1210.0,515.0 L 1211.0,514.0 L 1212.0,514.0 L 1212.0,513.0 L 1213.0,512.0 L 1214.0,512.0 L 1215.0,511.0 L 1216.0,511.0 L 1219.0,509.0 L 1222.0,509.0 Z"/>
  <path fill="#074270" stroke="none" fill-rule="evenodd" d="M 937.0,503.0 L 937.0,504.0 L 935.0,505.0 L 934.0,507.0 L 933.0,507.0 L 931.0,512.0 L 929.0,513.0 L 928.0,515.0 L 928.0,518.0 L 926.0,521.0 L 926.0,540.0 L 928.0,543.0 L 928.0,546.0 L 931.0,552.0 L 932.0,552.0 L 933.0,554.0 L 934.0,554.0 L 935.0,556.0 L 937.0,557.0 L 937.0,558.0 L 942.0,560.0 L 943.0,562.0 L 945.0,563.0 L 948.0,563.0 L 951.0,565.0 L 972.0,565.0 L 975.0,563.0 L 978.0,563.0 L 984.0,560.0 L 984.0,559.0 L 986.0,558.0 L 986.0,557.0 L 988.0,556.0 L 988.0,555.0 L 990.0,554.0 L 991.0,552.0 L 992.0,552.0 L 997.0,542.0 L 997.0,533.0 L 998.0,532.0 L 998.0,529.0 L 997.0,528.0 L 997.0,519.0 L 992.0,509.0 L 991.0,509.0 L 990.0,507.0 L 989.0,507.0 L 988.0,505.0 L 986.0,504.0 L 986.0,503.0 L 976.0,498.0 L 973.0,498.0 L 970.0,496.0 L 951.0,496.0 Z M 953.0,509.0 L 970.0,509.0 L 971.0,510.0 L 972.0,510.0 L 973.0,511.0 L 974.0,511.0 L 975.0,512.0 L 976.0,512.0 L 977.0,513.0 L 977.0,514.0 L 978.0,514.0 L 979.0,515.0 L 979.0,516.0 L 980.0,517.0 L 980.0,518.0 L 981.0,519.0 L 981.0,520.0 L 982.0,521.0 L 982.0,522.0 L 984.0,525.0 L 984.0,534.0 L 982.0,537.0 L 982.0,540.0 L 981.0,541.0 L 981.0,542.0 L 980.0,543.0 L 980.0,544.0 L 979.0,545.0 L 979.0,546.0 L 978.0,547.0 L 977.0,547.0 L 977.0,548.0 L 976.0,549.0 L 975.0,549.0 L 974.0,550.0 L 973.0,550.0 L 972.0,551.0 L 971.0,551.0 L 970.0,552.0 L 969.0,552.0 L 966.0,554.0 L 957.0,554.0 L 956.0,553.0 L 955.0,553.0 L 954.0,552.0 L 953.0,552.0 L 952.0,551.0 L 951.0,551.0 L 950.0,550.0 L 949.0,550.0 L 948.0,549.0 L 947.0,549.0 L 946.0,548.0 L 946.0,547.0 L 945.0,547.0 L 944.0,546.0 L 944.0,545.0 L 943.0,544.0 L 943.0,543.0 L 941.0,540.0 L 941.0,523.0 L 942.0,522.0 L 942.0,521.0 L 943.0,520.0 L 943.0,519.0 L 944.0,518.0 L 944.0,517.0 L 945.0,516.0 L 946.0,516.0 L 946.0,515.0 L 947.0,514.0 L 948.0,514.0 L 948.0,513.0 L 949.0,512.0 L 950.0,512.0 L 950.0,511.0 Z"/>
  <path fill="#074270" stroke="none" fill-rule="evenodd" d="M 230.0,451.0 L 230.0,652.0 L 247.0,672.0 L 255.0,675.0 L 550.0,675.0 L 570.0,660.0 L 575.0,648.0 L 575.0,527.0 L 552.0,547.0 L 552.0,646.0 L 542.0,654.0 L 259.0,653.0 L 251.0,644.0 L 251.0,471.0 Z"/>
  <path fill="#074270" stroke="none" fill-rule="evenodd" d="M 255.0,443.0 L 255.0,448.0 L 293.0,481.0 L 326.0,477.0 L 346.0,488.0 L 411.0,555.0 L 459.0,612.0 L 487.0,637.0 L 506.0,632.0 L 511.0,622.0 L 506.0,605.0 L 453.0,559.0 L 410.0,513.0 L 427.0,496.0 L 436.0,495.0 L 499.0,544.0 L 524.0,547.0 L 544.0,532.0 L 573.0,496.0 L 570.0,475.0 L 559.0,469.0 L 553.0,475.0 L 558.0,485.0 L 555.0,500.0 L 518.0,534.0 L 505.0,531.0 L 450.0,487.0 L 434.0,480.0 L 417.0,485.0 L 397.0,504.0 L 358.0,466.0 L 355.0,441.0 L 361.0,419.0 L 356.0,409.0 L 326.0,380.0 Z M 485.0,609.0 L 490.0,609.0 L 491.0,610.0 L 492.0,610.0 L 493.0,611.0 L 493.0,612.0 L 494.0,613.0 L 494.0,616.0 L 493.0,617.0 L 493.0,618.0 L 492.0,619.0 L 491.0,619.0 L 490.0,620.0 L 487.0,620.0 L 486.0,619.0 L 485.0,619.0 L 484.0,618.0 L 484.0,617.0 L 483.0,617.0 L 482.0,616.0 L 482.0,613.0 L 483.0,612.0 L 483.0,611.0 Z M 330.0,402.0 L 331.0,403.0 L 331.0,404.0 L 332.0,404.0 L 333.0,405.0 L 333.0,406.0 L 334.0,406.0 L 335.0,407.0 L 335.0,408.0 L 336.0,408.0 L 337.0,409.0 L 337.0,410.0 L 338.0,410.0 L 339.0,411.0 L 339.0,412.0 L 340.0,412.0 L 341.0,413.0 L 341.0,414.0 L 342.0,414.0 L 343.0,415.0 L 344.0,418.0 L 343.0,419.0 L 342.0,422.0 L 340.0,424.0 L 337.0,425.0 L 337.0,426.0 L 336.0,427.0 L 335.0,427.0 L 335.0,428.0 L 334.0,429.0 L 333.0,429.0 L 333.0,430.0 L 332.0,431.0 L 331.0,431.0 L 331.0,432.0 L 330.0,433.0 L 329.0,433.0 L 329.0,434.0 L 328.0,435.0 L 327.0,435.0 L 327.0,436.0 L 326.0,437.0 L 325.0,437.0 L 325.0,438.0 L 324.0,439.0 L 323.0,439.0 L 323.0,440.0 L 322.0,441.0 L 321.0,441.0 L 321.0,442.0 L 320.0,443.0 L 319.0,443.0 L 319.0,444.0 L 318.0,445.0 L 317.0,445.0 L 317.0,446.0 L 316.0,447.0 L 315.0,447.0 L 315.0,448.0 L 314.0,449.0 L 309.0,451.0 L 309.0,452.0 L 308.0,453.0 L 307.0,453.0 L 307.0,454.0 L 306.0,455.0 L 305.0,455.0 L 305.0,456.0 L 304.0,457.0 L 303.0,457.0 L 303.0,458.0 L 302.0,459.0 L 301.0,459.0 L 301.0,460.0 L 300.0,461.0 L 299.0,461.0 L 299.0,462.0 L 298.0,463.0 L 295.0,464.0 L 294.0,463.0 L 289.0,461.0 L 288.0,460.0 L 288.0,459.0 L 287.0,459.0 L 286.0,458.0 L 286.0,457.0 L 285.0,457.0 L 284.0,456.0 L 284.0,455.0 L 283.0,455.0 L 282.0,454.0 L 282.0,453.0 L 281.0,453.0 L 280.0,452.0 L 280.0,451.0 L 279.0,450.0 L 279.0,447.0 L 280.0,446.0 L 280.0,445.0 L 281.0,444.0 L 282.0,444.0 L 282.0,443.0 L 283.0,442.0 L 284.0,442.0 L 284.0,441.0 L 285.0,440.0 L 286.0,440.0 L 286.0,439.0 L 287.0,438.0 L 288.0,438.0 L 288.0,437.0 L 289.0,436.0 L 290.0,436.0 L 290.0,435.0 L 291.0,434.0 L 292.0,434.0 L 292.0,433.0 L 293.0,432.0 L 294.0,432.0 L 294.0,431.0 L 295.0,430.0 L 296.0,430.0 L 296.0,429.0 L 297.0,428.0 L 298.0,428.0 L 298.0,427.0 L 299.0,426.0 L 304.0,424.0 L 304.0,423.0 L 305.0,422.0 L 306.0,422.0 L 306.0,421.0 L 307.0,420.0 L 308.0,420.0 L 308.0,419.0 L 309.0,418.0 L 310.0,418.0 L 310.0,417.0 L 311.0,416.0 L 312.0,416.0 L 312.0,415.0 L 313.0,414.0 L 314.0,414.0 L 314.0,413.0 L 315.0,412.0 L 316.0,412.0 L 316.0,411.0 L 317.0,410.0 L 318.0,410.0 L 318.0,409.0 L 319.0,408.0 L 320.0,408.0 L 320.0,407.0 L 321.0,406.0 L 322.0,406.0 L 322.0,405.0 L 323.0,404.0 L 324.0,404.0 L 327.0,402.0 Z"/>
  <path fill="#074270" stroke="none" fill-rule="evenodd" d="M 1087.0,299.0 L 1087.0,458.0 L 1121.0,458.0 L 1122.0,360.0 L 1171.0,436.0 L 1176.0,434.0 L 1214.0,371.0 L 1223.0,362.0 L 1224.0,458.0 L 1258.0,458.0 L 1258.0,299.0 L 1221.0,299.0 L 1174.0,377.0 L 1168.0,374.0 L 1124.0,299.0 Z"/>
  <path fill="#074270" stroke="none" fill-rule="evenodd" d="M 700.0,299.0 L 701.0,458.0 L 733.0,458.0 L 734.0,362.0 L 743.0,371.0 L 783.0,436.0 L 786.0,436.0 L 833.0,362.0 L 834.0,456.0 L 837.0,459.0 L 862.0,459.0 L 869.0,456.0 L 868.0,298.0 L 833.0,298.0 L 786.0,379.0 L 782.0,378.0 L 736.0,299.0 Z"/>
  <path fill="#074270" stroke="none" fill-rule="evenodd" d="M 943.0,305.0 L 935.0,313.0 L 928.0,327.0 L 928.0,346.0 L 938.0,366.0 L 919.0,381.0 L 913.0,389.0 L 906.0,407.0 L 906.0,422.0 L 913.0,440.0 L 929.0,454.0 L 949.0,461.0 L 978.0,459.0 L 994.0,452.0 L 1008.0,441.0 L 1021.0,453.0 L 1025.0,460.0 L 1032.0,460.0 L 1051.0,444.0 L 1029.0,420.0 L 1030.0,415.0 L 1046.0,394.0 L 1051.0,383.0 L 1029.0,374.0 L 1013.0,398.0 L 1009.0,400.0 L 985.0,376.0 L 1006.0,362.0 L 1017.0,346.0 L 1019.0,327.0 L 1012.0,311.0 L 1006.0,305.0 L 992.0,298.0 L 982.0,296.0 L 967.0,296.0 Z M 944.0,399.0 L 945.0,398.0 L 946.0,398.0 L 946.0,397.0 L 947.0,396.0 L 948.0,396.0 L 948.0,395.0 L 949.0,394.0 L 950.0,394.0 L 950.0,393.0 L 951.0,392.0 L 952.0,392.0 L 952.0,391.0 L 953.0,390.0 L 954.0,390.0 L 955.0,389.0 L 958.0,390.0 L 959.0,391.0 L 959.0,392.0 L 960.0,392.0 L 961.0,393.0 L 961.0,394.0 L 962.0,394.0 L 963.0,395.0 L 963.0,396.0 L 964.0,396.0 L 965.0,397.0 L 965.0,398.0 L 966.0,398.0 L 967.0,399.0 L 967.0,400.0 L 968.0,400.0 L 969.0,401.0 L 969.0,402.0 L 970.0,402.0 L 971.0,403.0 L 971.0,404.0 L 972.0,404.0 L 973.0,405.0 L 973.0,406.0 L 974.0,406.0 L 975.0,407.0 L 975.0,408.0 L 976.0,408.0 L 977.0,409.0 L 977.0,410.0 L 978.0,410.0 L 979.0,411.0 L 979.0,412.0 L 980.0,412.0 L 981.0,413.0 L 981.0,414.0 L 982.0,414.0 L 983.0,415.0 L 983.0,416.0 L 984.0,416.0 L 985.0,417.0 L 985.0,418.0 L 986.0,418.0 L 987.0,419.0 L 987.0,420.0 L 988.0,421.0 L 988.0,424.0 L 987.0,425.0 L 987.0,426.0 L 986.0,427.0 L 985.0,427.0 L 984.0,428.0 L 983.0,428.0 L 982.0,429.0 L 981.0,429.0 L 980.0,430.0 L 979.0,430.0 L 978.0,431.0 L 977.0,431.0 L 976.0,432.0 L 975.0,432.0 L 972.0,434.0 L 955.0,434.0 L 954.0,433.0 L 953.0,433.0 L 952.0,432.0 L 949.0,431.0 L 948.0,430.0 L 948.0,429.0 L 945.0,428.0 L 943.0,426.0 L 943.0,425.0 L 941.0,422.0 L 941.0,419.0 L 939.0,416.0 L 939.0,411.0 L 941.0,408.0 L 941.0,405.0 L 942.0,404.0 L 942.0,403.0 L 943.0,402.0 Z M 980.0,319.0 L 981.0,320.0 L 982.0,320.0 L 983.0,321.0 L 984.0,321.0 L 985.0,322.0 L 986.0,322.0 L 987.0,323.0 L 987.0,324.0 L 988.0,324.0 L 989.0,325.0 L 989.0,326.0 L 990.0,326.0 L 991.0,327.0 L 991.0,328.0 L 992.0,329.0 L 992.0,338.0 L 991.0,339.0 L 991.0,340.0 L 990.0,341.0 L 990.0,342.0 L 989.0,343.0 L 989.0,344.0 L 988.0,345.0 L 988.0,346.0 L 987.0,347.0 L 987.0,348.0 L 986.0,349.0 L 985.0,349.0 L 984.0,350.0 L 983.0,350.0 L 982.0,351.0 L 981.0,351.0 L 981.0,352.0 L 980.0,353.0 L 979.0,353.0 L 978.0,354.0 L 977.0,354.0 L 976.0,355.0 L 975.0,355.0 L 974.0,356.0 L 973.0,356.0 L 972.0,357.0 L 971.0,357.0 L 970.0,358.0 L 969.0,358.0 L 968.0,357.0 L 967.0,357.0 L 966.0,356.0 L 966.0,355.0 L 965.0,355.0 L 964.0,354.0 L 964.0,353.0 L 963.0,352.0 L 963.0,351.0 L 962.0,350.0 L 962.0,349.0 L 961.0,348.0 L 961.0,347.0 L 960.0,346.0 L 960.0,345.0 L 959.0,344.0 L 959.0,341.0 L 958.0,340.0 L 958.0,339.0 L 957.0,338.0 L 957.0,333.0 L 958.0,332.0 L 958.0,331.0 L 959.0,330.0 L 959.0,329.0 L 960.0,328.0 L 960.0,327.0 L 961.0,326.0 L 962.0,326.0 L 962.0,325.0 L 963.0,324.0 L 964.0,324.0 L 964.0,323.0 L 965.0,322.0 L 966.0,322.0 L 967.0,321.0 L 968.0,321.0 L 969.0,320.0 L 970.0,320.0 L 971.0,319.0 Z"/>
  <path fill="#074270" stroke="none" fill-rule="evenodd" d="M 308.0,333.0 L 311.0,340.0 L 319.0,346.0 L 326.0,346.0 L 406.0,281.0 L 571.0,414.0 L 582.0,417.0 L 591.0,406.0 L 582.0,393.0 L 410.0,256.0 L 403.0,256.0 L 389.0,265.0 L 382.0,273.0 L 317.0,323.0 Z"/>
  <path fill="#f06017" stroke="none" fill-rule="evenodd" d="M 773.0,669.0 L 773.0,670.0 L 772.0,671.0 L 772.0,708.0 L 773.0,709.0 L 778.0,709.0 L 779.0,708.0 L 779.0,671.0 L 778.0,670.0 L 777.0,670.0 L 776.0,669.0 Z"/>
  <path fill="#f06017" stroke="none" fill-rule="evenodd" d="M 1131.0,668.0 L 1130.0,669.0 L 1129.0,669.0 L 1129.0,672.0 L 1130.0,673.0 L 1131.0,676.0 L 1132.0,676.0 L 1133.0,677.0 L 1133.0,678.0 L 1134.0,679.0 L 1135.0,682.0 L 1136.0,682.0 L 1137.0,683.0 L 1137.0,684.0 L 1138.0,685.0 L 1138.0,686.0 L 1139.0,687.0 L 1139.0,688.0 L 1140.0,689.0 L 1140.0,690.0 L 1142.0,693.0 L 1142.0,708.0 L 1143.0,709.0 L 1148.0,709.0 L 1149.0,708.0 L 1149.0,693.0 L 1150.0,692.0 L 1150.0,691.0 L 1151.0,690.0 L 1152.0,690.0 L 1152.0,689.0 L 1153.0,688.0 L 1154.0,685.0 L 1155.0,684.0 L 1156.0,684.0 L 1156.0,683.0 L 1157.0,682.0 L 1157.0,681.0 L 1158.0,680.0 L 1158.0,679.0 L 1159.0,678.0 L 1160.0,675.0 L 1161.0,674.0 L 1162.0,674.0 L 1162.0,673.0 L 1163.0,672.0 L 1163.0,669.0 L 1162.0,668.0 L 1159.0,668.0 L 1158.0,669.0 L 1157.0,669.0 L 1157.0,670.0 L 1156.0,671.0 L 1156.0,672.0 L 1155.0,673.0 L 1155.0,674.0 L 1154.0,675.0 L 1153.0,678.0 L 1152.0,679.0 L 1151.0,679.0 L 1151.0,680.0 L 1150.0,681.0 L 1149.0,684.0 L 1148.0,685.0 L 1145.0,685.0 L 1144.0,684.0 L 1144.0,683.0 L 1143.0,683.0 L 1142.0,682.0 L 1142.0,681.0 L 1141.0,680.0 L 1141.0,679.0 L 1140.0,678.0 L 1140.0,677.0 L 1139.0,676.0 L 1138.0,673.0 L 1137.0,673.0 L 1136.0,672.0 L 1135.0,669.0 L 1134.0,668.0 Z"/>
  <path fill="#f06017" stroke="none" fill-rule="evenodd" d="M 1087.0,668.0 L 1086.0,669.0 L 1085.0,669.0 L 1085.0,670.0 L 1084.0,671.0 L 1084.0,674.0 L 1085.0,675.0 L 1094.0,675.0 L 1096.0,677.0 L 1096.0,708.0 L 1097.0,709.0 L 1102.0,709.0 L 1103.0,708.0 L 1103.0,677.0 L 1105.0,675.0 L 1112.0,675.0 L 1113.0,674.0 L 1114.0,674.0 L 1114.0,673.0 L 1115.0,672.0 L 1115.0,671.0 L 1114.0,670.0 L 1114.0,669.0 L 1113.0,669.0 L 1112.0,668.0 Z"/>
  <path fill="#f06017" stroke="none" fill-rule="evenodd" d="M 1033.0,668.0 L 1032.0,669.0 L 1032.0,708.0 L 1033.0,709.0 L 1038.0,709.0 L 1039.0,708.0 L 1039.0,685.0 L 1040.0,684.0 L 1042.0,684.0 L 1043.0,686.0 L 1045.0,687.0 L 1047.0,692.0 L 1049.0,693.0 L 1051.0,698.0 L 1052.0,698.0 L 1053.0,700.0 L 1055.0,701.0 L 1057.0,706.0 L 1058.0,706.0 L 1059.0,708.0 L 1061.0,709.0 L 1066.0,709.0 L 1067.0,708.0 L 1067.0,671.0 L 1066.0,669.0 L 1063.0,668.0 L 1061.0,669.0 L 1060.0,671.0 L 1060.0,694.0 L 1059.0,695.0 L 1057.0,695.0 L 1054.0,689.0 L 1053.0,689.0 L 1052.0,687.0 L 1050.0,686.0 L 1048.0,681.0 L 1047.0,681.0 L 1046.0,679.0 L 1044.0,678.0 L 1042.0,673.0 L 1041.0,673.0 L 1040.0,671.0 L 1038.0,670.0 L 1038.0,669.0 L 1036.0,668.0 Z"/>
  <path fill="#f06017" stroke="none" fill-rule="evenodd" d="M 989.0,668.0 L 988.0,669.0 L 987.0,669.0 L 986.0,670.0 L 985.0,670.0 L 984.0,671.0 L 983.0,671.0 L 982.0,672.0 L 981.0,672.0 L 980.0,673.0 L 979.0,673.0 L 979.0,674.0 L 978.0,675.0 L 977.0,675.0 L 977.0,676.0 L 976.0,677.0 L 976.0,678.0 L 974.0,681.0 L 974.0,684.0 L 972.0,687.0 L 972.0,694.0 L 973.0,695.0 L 973.0,696.0 L 974.0,697.0 L 974.0,698.0 L 975.0,699.0 L 975.0,700.0 L 976.0,701.0 L 976.0,702.0 L 977.0,703.0 L 977.0,704.0 L 978.0,704.0 L 979.0,705.0 L 979.0,706.0 L 980.0,706.0 L 981.0,707.0 L 982.0,707.0 L 985.0,709.0 L 990.0,709.0 L 993.0,711.0 L 996.0,711.0 L 999.0,709.0 L 1002.0,709.0 L 1003.0,708.0 L 1004.0,708.0 L 1005.0,707.0 L 1006.0,707.0 L 1007.0,706.0 L 1008.0,706.0 L 1008.0,705.0 L 1009.0,704.0 L 1010.0,704.0 L 1010.0,703.0 L 1011.0,702.0 L 1012.0,702.0 L 1012.0,701.0 L 1013.0,700.0 L 1013.0,699.0 L 1015.0,696.0 L 1015.0,683.0 L 1014.0,682.0 L 1014.0,681.0 L 1013.0,680.0 L 1013.0,679.0 L 1012.0,678.0 L 1012.0,677.0 L 1011.0,677.0 L 1010.0,676.0 L 1010.0,675.0 L 1009.0,675.0 L 1008.0,674.0 L 1008.0,673.0 L 1007.0,673.0 L 1006.0,672.0 L 1006.0,671.0 L 1005.0,671.0 L 1004.0,670.0 L 1001.0,670.0 L 998.0,668.0 Z M 991.0,673.0 L 996.0,673.0 L 997.0,674.0 L 998.0,674.0 L 999.0,675.0 L 1000.0,675.0 L 1001.0,676.0 L 1002.0,676.0 L 1003.0,677.0 L 1003.0,678.0 L 1004.0,678.0 L 1005.0,679.0 L 1005.0,680.0 L 1006.0,680.0 L 1007.0,681.0 L 1007.0,682.0 L 1008.0,683.0 L 1008.0,694.0 L 1007.0,695.0 L 1007.0,696.0 L 1006.0,697.0 L 1006.0,698.0 L 1005.0,699.0 L 1005.0,700.0 L 1004.0,701.0 L 1003.0,701.0 L 1003.0,702.0 L 1002.0,703.0 L 1001.0,703.0 L 1000.0,704.0 L 989.0,704.0 L 988.0,703.0 L 987.0,703.0 L 986.0,702.0 L 985.0,702.0 L 983.0,700.0 L 983.0,699.0 L 982.0,698.0 L 982.0,697.0 L 981.0,696.0 L 981.0,695.0 L 980.0,694.0 L 980.0,693.0 L 979.0,692.0 L 979.0,685.0 L 980.0,684.0 L 980.0,683.0 L 981.0,682.0 L 981.0,681.0 L 982.0,680.0 L 982.0,679.0 L 983.0,678.0 L 984.0,678.0 L 984.0,677.0 L 985.0,676.0 L 986.0,676.0 L 987.0,675.0 L 988.0,675.0 L 989.0,674.0 L 990.0,674.0 Z"/>
  <path fill="#f06017" stroke="none" fill-rule="evenodd" d="M 915.0,668.0 L 914.0,669.0 L 914.0,708.0 L 915.0,709.0 L 920.0,709.0 L 921.0,708.0 L 921.0,685.0 L 922.0,684.0 L 924.0,684.0 L 925.0,685.0 L 929.0,694.0 L 931.0,695.0 L 933.0,700.0 L 936.0,700.0 L 936.0,699.0 L 938.0,698.0 L 942.0,689.0 L 944.0,688.0 L 945.0,685.0 L 947.0,683.0 L 948.0,683.0 L 950.0,685.0 L 950.0,708.0 L 951.0,709.0 L 954.0,709.0 L 955.0,708.0 L 955.0,669.0 L 954.0,668.0 L 951.0,668.0 L 949.0,669.0 L 949.0,670.0 L 947.0,671.0 L 946.0,673.0 L 945.0,673.0 L 941.0,682.0 L 939.0,683.0 L 937.0,688.0 L 936.0,689.0 L 933.0,689.0 L 928.0,679.0 L 926.0,678.0 L 924.0,673.0 L 923.0,673.0 L 922.0,671.0 L 920.0,670.0 L 920.0,669.0 L 918.0,668.0 Z"/>
  <path fill="#f06017" stroke="none" fill-rule="evenodd" d="M 871.0,669.0 L 871.0,670.0 L 870.0,671.0 L 870.0,708.0 L 871.0,709.0 L 896.0,709.0 L 897.0,708.0 L 897.0,705.0 L 896.0,704.0 L 879.0,704.0 L 877.0,702.0 L 877.0,693.0 L 879.0,691.0 L 892.0,691.0 L 893.0,690.0 L 894.0,690.0 L 894.0,687.0 L 893.0,687.0 L 892.0,686.0 L 879.0,686.0 L 877.0,684.0 L 877.0,677.0 L 879.0,675.0 L 894.0,675.0 L 895.0,674.0 L 896.0,674.0 L 896.0,673.0 L 897.0,672.0 L 896.0,669.0 L 895.0,669.0 L 894.0,668.0 L 873.0,668.0 L 872.0,669.0 Z"/>
  <path fill="#f06017" stroke="none" fill-rule="evenodd" d="M 821.0,669.0 L 821.0,670.0 L 820.0,671.0 L 820.0,708.0 L 821.0,709.0 L 826.0,709.0 L 827.0,708.0 L 827.0,697.0 L 829.0,695.0 L 834.0,695.0 L 837.0,697.0 L 837.0,698.0 L 838.0,699.0 L 839.0,702.0 L 840.0,702.0 L 841.0,703.0 L 841.0,704.0 L 842.0,704.0 L 843.0,705.0 L 843.0,706.0 L 845.0,709.0 L 852.0,709.0 L 852.0,707.0 L 851.0,707.0 L 850.0,706.0 L 850.0,705.0 L 849.0,705.0 L 848.0,704.0 L 848.0,703.0 L 847.0,702.0 L 846.0,699.0 L 845.0,699.0 L 843.0,696.0 L 843.0,695.0 L 845.0,693.0 L 848.0,692.0 L 848.0,691.0 L 849.0,690.0 L 849.0,689.0 L 851.0,686.0 L 851.0,677.0 L 850.0,676.0 L 850.0,675.0 L 849.0,675.0 L 848.0,674.0 L 848.0,673.0 L 847.0,673.0 L 846.0,672.0 L 845.0,672.0 L 842.0,670.0 L 835.0,670.0 L 832.0,668.0 L 823.0,668.0 L 822.0,669.0 Z M 827.0,677.0 L 829.0,675.0 L 840.0,675.0 L 841.0,676.0 L 842.0,676.0 L 843.0,677.0 L 843.0,678.0 L 844.0,679.0 L 844.0,686.0 L 842.0,688.0 L 841.0,688.0 L 840.0,689.0 L 839.0,689.0 L 838.0,690.0 L 829.0,690.0 L 827.0,688.0 Z"/>
  <path fill="#f06017" stroke="none" fill-rule="evenodd" d="M 1181.0,606.0 L 1180.0,607.0 L 1180.0,644.0 L 1181.0,645.0 L 1181.0,646.0 L 1182.0,646.0 L 1183.0,647.0 L 1186.0,647.0 L 1187.0,646.0 L 1187.0,607.0 L 1186.0,606.0 Z"/>
  <path fill="#f06017" stroke="none" fill-rule="evenodd" d="M 1125.0,606.0 L 1124.0,607.0 L 1124.0,644.0 L 1125.0,646.0 L 1127.0,647.0 L 1130.0,647.0 L 1131.0,646.0 L 1131.0,621.0 L 1133.0,619.0 L 1134.0,619.0 L 1136.0,621.0 L 1137.0,624.0 L 1138.0,624.0 L 1139.0,626.0 L 1140.0,626.0 L 1141.0,628.0 L 1143.0,629.0 L 1145.0,634.0 L 1147.0,635.0 L 1149.0,640.0 L 1150.0,640.0 L 1151.0,642.0 L 1152.0,642.0 L 1153.0,644.0 L 1155.0,645.0 L 1155.0,646.0 L 1161.0,646.0 L 1161.0,607.0 L 1160.0,606.0 L 1155.0,606.0 L 1154.0,607.0 L 1154.0,630.0 L 1153.0,631.0 L 1151.0,631.0 L 1150.0,629.0 L 1148.0,628.0 L 1146.0,623.0 L 1145.0,623.0 L 1144.0,621.0 L 1142.0,620.0 L 1140.0,615.0 L 1139.0,615.0 L 1138.0,613.0 L 1136.0,612.0 L 1134.0,607.0 L 1132.0,606.0 Z"/>
  <path fill="#f06017" stroke="none" fill-rule="evenodd" d="M 1033.0,606.0 L 1032.0,607.0 L 1032.0,610.0 L 1033.0,611.0 L 1050.0,611.0 L 1052.0,613.0 L 1052.0,614.0 L 1051.0,615.0 L 1051.0,616.0 L 1050.0,617.0 L 1049.0,617.0 L 1047.0,622.0 L 1046.0,623.0 L 1045.0,623.0 L 1045.0,624.0 L 1044.0,625.0 L 1043.0,625.0 L 1041.0,630.0 L 1040.0,631.0 L 1039.0,631.0 L 1037.0,636.0 L 1036.0,637.0 L 1035.0,637.0 L 1035.0,638.0 L 1032.0,643.0 L 1032.0,646.0 L 1033.0,647.0 L 1062.0,647.0 L 1063.0,646.0 L 1064.0,646.0 L 1065.0,643.0 L 1064.0,642.0 L 1064.0,641.0 L 1063.0,641.0 L 1062.0,640.0 L 1045.0,640.0 L 1043.0,638.0 L 1044.0,635.0 L 1045.0,634.0 L 1046.0,634.0 L 1048.0,629.0 L 1049.0,628.0 L 1050.0,628.0 L 1052.0,623.0 L 1053.0,622.0 L 1054.0,622.0 L 1054.0,621.0 L 1055.0,620.0 L 1056.0,620.0 L 1058.0,615.0 L 1059.0,614.0 L 1060.0,614.0 L 1063.0,607.0 L 1062.0,606.0 Z"/>
  <path fill="#f06017" stroke="none" fill-rule="evenodd" d="M 929.0,606.0 L 928.0,607.0 L 928.0,646.0 L 929.0,647.0 L 932.0,647.0 L 934.0,646.0 L 935.0,644.0 L 935.0,621.0 L 936.0,620.0 L 938.0,620.0 L 939.0,621.0 L 941.0,626.0 L 942.0,626.0 L 943.0,628.0 L 945.0,629.0 L 947.0,634.0 L 948.0,634.0 L 949.0,636.0 L 951.0,637.0 L 953.0,642.0 L 954.0,642.0 L 955.0,644.0 L 956.0,644.0 L 957.0,646.0 L 959.0,647.0 L 962.0,646.0 L 963.0,644.0 L 963.0,607.0 L 962.0,606.0 L 959.0,606.0 L 957.0,607.0 L 956.0,609.0 L 958.0,613.0 L 958.0,618.0 L 956.0,621.0 L 956.0,630.0 L 955.0,631.0 L 953.0,631.0 L 950.0,625.0 L 949.0,625.0 L 948.0,623.0 L 946.0,622.0 L 944.0,617.0 L 943.0,617.0 L 942.0,615.0 L 940.0,614.0 L 938.0,609.0 L 937.0,609.0 L 936.0,607.0 L 934.0,606.0 Z"/>
  <path fill="#f06017" stroke="none" fill-rule="evenodd" d="M 773.0,606.0 L 772.0,607.0 L 772.0,608.0 L 773.0,609.0 L 773.0,610.0 L 774.0,611.0 L 774.0,612.0 L 775.0,613.0 L 775.0,614.0 L 776.0,614.0 L 777.0,615.0 L 777.0,616.0 L 778.0,617.0 L 778.0,618.0 L 779.0,619.0 L 779.0,620.0 L 780.0,621.0 L 780.0,622.0 L 781.0,623.0 L 781.0,624.0 L 782.0,624.0 L 783.0,625.0 L 783.0,626.0 L 784.0,627.0 L 784.0,628.0 L 786.0,631.0 L 786.0,646.0 L 787.0,647.0 L 790.0,647.0 L 791.0,646.0 L 791.0,631.0 L 792.0,630.0 L 792.0,629.0 L 793.0,628.0 L 793.0,627.0 L 794.0,626.0 L 794.0,625.0 L 795.0,624.0 L 796.0,624.0 L 796.0,623.0 L 797.0,622.0 L 797.0,621.0 L 798.0,620.0 L 798.0,619.0 L 799.0,618.0 L 799.0,617.0 L 800.0,616.0 L 800.0,615.0 L 801.0,614.0 L 802.0,614.0 L 802.0,613.0 L 803.0,612.0 L 803.0,611.0 L 804.0,610.0 L 804.0,609.0 L 805.0,608.0 L 806.0,608.0 L 806.0,606.0 L 801.0,606.0 L 800.0,607.0 L 799.0,607.0 L 799.0,608.0 L 798.0,609.0 L 797.0,609.0 L 797.0,610.0 L 796.0,611.0 L 796.0,612.0 L 795.0,613.0 L 795.0,614.0 L 794.0,615.0 L 794.0,616.0 L 793.0,617.0 L 793.0,618.0 L 792.0,619.0 L 791.0,619.0 L 791.0,620.0 L 790.0,621.0 L 787.0,621.0 L 786.0,620.0 L 786.0,619.0 L 785.0,618.0 L 785.0,617.0 L 784.0,616.0 L 784.0,615.0 L 783.0,615.0 L 782.0,614.0 L 782.0,613.0 L 781.0,612.0 L 781.0,611.0 L 780.0,610.0 L 780.0,609.0 L 778.0,606.0 Z"/>
  <path fill="#f06017" stroke="none" fill-rule="evenodd" d="M 698.0,607.0 L 700.0,611.0 L 700.0,614.0 L 702.0,617.0 L 702.0,620.0 L 704.0,623.0 L 704.0,626.0 L 706.0,629.0 L 706.0,632.0 L 708.0,635.0 L 708.0,640.0 L 711.0,646.0 L 713.0,647.0 L 716.0,647.0 L 719.0,642.0 L 719.0,639.0 L 721.0,636.0 L 721.0,633.0 L 723.0,630.0 L 723.0,625.0 L 725.0,622.0 L 725.0,619.0 L 727.0,617.0 L 730.0,619.0 L 730.0,622.0 L 732.0,625.0 L 732.0,628.0 L 734.0,631.0 L 734.0,634.0 L 736.0,637.0 L 736.0,640.0 L 739.0,646.0 L 742.0,646.0 L 745.0,644.0 L 747.0,640.0 L 747.0,637.0 L 749.0,634.0 L 749.0,631.0 L 751.0,628.0 L 751.0,625.0 L 753.0,622.0 L 753.0,619.0 L 755.0,616.0 L 755.0,611.0 L 757.0,608.0 L 756.0,606.0 L 751.0,606.0 L 750.0,607.0 L 750.0,610.0 L 746.0,619.0 L 746.0,624.0 L 742.0,633.0 L 740.0,633.0 L 739.0,632.0 L 739.0,629.0 L 737.0,626.0 L 737.0,623.0 L 735.0,620.0 L 735.0,617.0 L 733.0,614.0 L 733.0,611.0 L 730.0,606.0 L 725.0,606.0 L 724.0,607.0 L 724.0,610.0 L 722.0,613.0 L 722.0,616.0 L 720.0,619.0 L 720.0,622.0 L 716.0,631.0 L 713.0,631.0 L 711.0,628.0 L 711.0,625.0 L 709.0,622.0 L 709.0,619.0 L 707.0,616.0 L 707.0,613.0 L 705.0,610.0 L 705.0,607.0 L 704.0,606.0 L 699.0,606.0 Z"/>
  <path fill="#f06017" stroke="none" fill-rule="evenodd" d="M 1106.0,606.0 L 1099.0,606.0 L 1098.0,605.0 L 1095.0,605.0 L 1094.0,606.0 L 1081.0,606.0 L 1080.0,607.0 L 1080.0,644.0 L 1081.0,645.0 L 1081.0,646.0 L 1082.0,646.0 L 1083.0,647.0 L 1106.0,647.0 L 1107.0,646.0 L 1108.0,646.0 L 1109.0,643.0 L 1108.0,642.0 L 1108.0,641.0 L 1107.0,641.0 L 1106.0,640.0 L 1089.0,640.0 L 1087.0,638.0 L 1087.0,631.0 L 1089.0,629.0 L 1104.0,629.0 L 1105.0,628.0 L 1105.0,625.0 L 1104.0,624.0 L 1097.0,624.0 L 1094.0,622.0 L 1089.0,622.0 L 1087.0,620.0 L 1087.0,613.0 L 1089.0,611.0 L 1106.0,611.0 L 1107.0,610.0 L 1107.0,607.0 Z"/>
  <path fill="#f06017" stroke="none" fill-rule="evenodd" d="M 853.0,605.0 L 851.0,605.0 L 850.0,606.0 L 847.0,606.0 L 846.0,607.0 L 845.0,607.0 L 845.0,608.0 L 844.0,609.0 L 843.0,609.0 L 843.0,610.0 L 842.0,611.0 L 841.0,611.0 L 841.0,612.0 L 840.0,613.0 L 839.0,613.0 L 839.0,614.0 L 838.0,615.0 L 837.0,615.0 L 837.0,616.0 L 836.0,617.0 L 835.0,617.0 L 835.0,618.0 L 834.0,619.0 L 833.0,619.0 L 833.0,620.0 L 832.0,621.0 L 830.0,621.0 L 829.0,620.0 L 829.0,607.0 L 828.0,606.0 L 823.0,606.0 L 822.0,607.0 L 822.0,646.0 L 828.0,646.0 L 828.0,645.0 L 829.0,644.0 L 829.0,633.0 L 830.0,632.0 L 830.0,631.0 L 833.0,629.0 L 836.0,629.0 L 838.0,631.0 L 839.0,634.0 L 840.0,634.0 L 841.0,635.0 L 843.0,640.0 L 844.0,640.0 L 845.0,641.0 L 845.0,642.0 L 846.0,642.0 L 847.0,643.0 L 847.0,644.0 L 848.0,644.0 L 849.0,645.0 L 849.0,646.0 L 850.0,646.0 L 851.0,647.0 L 854.0,647.0 L 855.0,646.0 L 852.0,639.0 L 851.0,639.0 L 850.0,638.0 L 850.0,637.0 L 849.0,637.0 L 848.0,636.0 L 846.0,631.0 L 845.0,631.0 L 844.0,630.0 L 844.0,629.0 L 841.0,624.0 L 841.0,621.0 L 842.0,620.0 L 842.0,619.0 L 843.0,618.0 L 844.0,618.0 L 844.0,617.0 L 845.0,616.0 L 846.0,616.0 L 846.0,615.0 L 847.0,614.0 L 848.0,614.0 L 848.0,613.0 L 849.0,612.0 L 850.0,612.0 Z"/>
  <path fill="#f06017" stroke="none" fill-rule="evenodd" d="M 1219.0,604.0 L 1218.0,605.0 L 1218.0,606.0 L 1217.0,607.0 L 1217.0,608.0 L 1216.0,609.0 L 1216.0,610.0 L 1214.0,613.0 L 1214.0,616.0 L 1212.0,619.0 L 1212.0,622.0 L 1211.0,623.0 L 1211.0,624.0 L 1210.0,625.0 L 1210.0,626.0 L 1208.0,629.0 L 1208.0,632.0 L 1207.0,633.0 L 1207.0,634.0 L 1206.0,635.0 L 1206.0,636.0 L 1204.0,639.0 L 1204.0,642.0 L 1203.0,643.0 L 1203.0,645.0 L 1204.0,645.0 L 1205.0,646.0 L 1208.0,646.0 L 1208.0,645.0 L 1209.0,644.0 L 1210.0,644.0 L 1210.0,643.0 L 1211.0,642.0 L 1211.0,639.0 L 1213.0,637.0 L 1230.0,637.0 L 1233.0,639.0 L 1233.0,640.0 L 1234.0,641.0 L 1234.0,644.0 L 1235.0,645.0 L 1235.0,646.0 L 1236.0,646.0 L 1237.0,647.0 L 1240.0,647.0 L 1241.0,646.0 L 1241.0,641.0 L 1240.0,640.0 L 1240.0,639.0 L 1239.0,638.0 L 1239.0,637.0 L 1237.0,634.0 L 1237.0,631.0 L 1236.0,630.0 L 1236.0,629.0 L 1235.0,628.0 L 1235.0,627.0 L 1233.0,624.0 L 1233.0,621.0 L 1231.0,618.0 L 1231.0,615.0 L 1230.0,614.0 L 1230.0,613.0 L 1229.0,612.0 L 1229.0,611.0 L 1228.0,610.0 L 1228.0,609.0 L 1226.0,606.0 L 1225.0,606.0 L 1222.0,604.0 Z M 1221.0,614.0 L 1223.0,614.0 L 1224.0,615.0 L 1224.0,616.0 L 1225.0,617.0 L 1225.0,618.0 L 1226.0,619.0 L 1226.0,622.0 L 1227.0,623.0 L 1227.0,624.0 L 1228.0,625.0 L 1228.0,628.0 L 1229.0,629.0 L 1229.0,631.0 L 1228.0,632.0 L 1217.0,632.0 L 1215.0,630.0 L 1215.0,627.0 L 1216.0,626.0 L 1216.0,625.0 L 1217.0,624.0 L 1217.0,621.0 L 1218.0,620.0 L 1218.0,619.0 L 1219.0,618.0 L 1219.0,617.0 L 1220.0,616.0 L 1220.0,615.0 Z"/>
  <path fill="#f06017" stroke="none" fill-rule="evenodd" d="M 997.0,604.0 L 996.0,605.0 L 995.0,605.0 L 994.0,606.0 L 987.0,609.0 L 987.0,610.0 L 986.0,611.0 L 985.0,611.0 L 985.0,612.0 L 984.0,613.0 L 983.0,613.0 L 983.0,614.0 L 982.0,615.0 L 982.0,618.0 L 980.0,621.0 L 980.0,632.0 L 981.0,633.0 L 983.0,638.0 L 984.0,638.0 L 985.0,639.0 L 985.0,640.0 L 986.0,640.0 L 987.0,641.0 L 987.0,642.0 L 988.0,642.0 L 989.0,643.0 L 989.0,644.0 L 990.0,644.0 L 991.0,645.0 L 994.0,645.0 L 997.0,647.0 L 1006.0,647.0 L 1007.0,646.0 L 1008.0,646.0 L 1009.0,645.0 L 1016.0,642.0 L 1016.0,639.0 L 1015.0,639.0 L 1014.0,638.0 L 1014.0,637.0 L 1011.0,637.0 L 1006.0,640.0 L 995.0,640.0 L 994.0,639.0 L 993.0,639.0 L 992.0,638.0 L 992.0,637.0 L 991.0,637.0 L 990.0,636.0 L 990.0,635.0 L 987.0,630.0 L 987.0,621.0 L 988.0,620.0 L 990.0,615.0 L 991.0,614.0 L 992.0,614.0 L 992.0,613.0 L 995.0,611.0 L 998.0,611.0 L 999.0,610.0 L 1002.0,610.0 L 1003.0,611.0 L 1006.0,611.0 L 1011.0,614.0 L 1014.0,614.0 L 1014.0,613.0 L 1015.0,612.0 L 1016.0,612.0 L 1016.0,609.0 L 1015.0,609.0 L 1006.0,604.0 Z"/>
  <path fill="#f06017" stroke="none" fill-rule="evenodd" d="M 885.0,604.0 L 882.0,606.0 L 879.0,606.0 L 878.0,607.0 L 877.0,607.0 L 877.0,608.0 L 876.0,609.0 L 875.0,609.0 L 875.0,610.0 L 874.0,611.0 L 873.0,611.0 L 873.0,612.0 L 872.0,613.0 L 871.0,613.0 L 871.0,614.0 L 870.0,615.0 L 870.0,616.0 L 868.0,619.0 L 868.0,632.0 L 869.0,633.0 L 869.0,634.0 L 870.0,635.0 L 870.0,636.0 L 871.0,637.0 L 871.0,638.0 L 872.0,638.0 L 873.0,639.0 L 873.0,640.0 L 874.0,640.0 L 875.0,641.0 L 875.0,642.0 L 876.0,642.0 L 877.0,643.0 L 877.0,644.0 L 878.0,644.0 L 879.0,645.0 L 882.0,645.0 L 885.0,647.0 L 894.0,647.0 L 897.0,645.0 L 900.0,645.0 L 901.0,644.0 L 902.0,644.0 L 902.0,643.0 L 903.0,642.0 L 904.0,642.0 L 905.0,641.0 L 906.0,641.0 L 907.0,640.0 L 907.0,639.0 L 908.0,638.0 L 908.0,637.0 L 909.0,636.0 L 910.0,636.0 L 910.0,635.0 L 911.0,634.0 L 911.0,617.0 L 910.0,616.0 L 910.0,615.0 L 909.0,615.0 L 908.0,614.0 L 908.0,613.0 L 907.0,613.0 L 906.0,612.0 L 906.0,611.0 L 905.0,611.0 L 904.0,610.0 L 904.0,609.0 L 903.0,609.0 L 902.0,608.0 L 902.0,607.0 L 901.0,607.0 L 900.0,606.0 L 897.0,606.0 L 894.0,604.0 Z M 883.0,611.0 L 886.0,611.0 L 887.0,610.0 L 890.0,610.0 L 891.0,611.0 L 896.0,611.0 L 897.0,612.0 L 898.0,612.0 L 899.0,613.0 L 899.0,614.0 L 900.0,614.0 L 901.0,615.0 L 901.0,616.0 L 902.0,617.0 L 902.0,618.0 L 903.0,619.0 L 903.0,620.0 L 904.0,621.0 L 904.0,632.0 L 903.0,633.0 L 903.0,634.0 L 902.0,635.0 L 901.0,635.0 L 901.0,636.0 L 900.0,637.0 L 899.0,637.0 L 899.0,638.0 L 898.0,639.0 L 897.0,639.0 L 896.0,640.0 L 883.0,640.0 L 882.0,639.0 L 881.0,639.0 L 880.0,638.0 L 880.0,637.0 L 879.0,637.0 L 878.0,636.0 L 878.0,635.0 L 877.0,634.0 L 877.0,633.0 L 876.0,632.0 L 876.0,631.0 L 875.0,630.0 L 875.0,621.0 L 876.0,620.0 L 876.0,619.0 L 877.0,618.0 L 877.0,617.0 L 878.0,616.0 L 878.0,615.0 L 879.0,614.0 L 880.0,614.0 L 880.0,613.0 L 881.0,612.0 L 882.0,612.0 Z"/>
  <path fill="#f06017" stroke="none" fill-rule="evenodd" d="M 398.0,543.0 L 390.0,536.0 L 385.0,537.0 L 333.0,589.0 L 331.0,594.0 L 306.0,619.0 L 294.0,624.0 L 290.0,622.0 L 287.0,622.0 L 287.0,624.0 L 293.0,630.0 L 298.0,631.0 L 301.0,633.0 L 304.0,633.0 L 307.0,631.0 L 312.0,631.0 L 315.0,628.0 L 320.0,626.0 L 346.0,600.0 L 348.0,595.0 L 351.0,592.0 L 356.0,590.0 L 358.0,585.0 L 398.0,546.0 Z"/>
  <path fill="#f06017" stroke="none" fill-rule="evenodd" d="M 423.0,343.0 L 385.0,379.0 L 382.0,389.0 L 385.0,398.0 L 397.0,410.0 L 402.0,412.0 L 411.0,422.0 L 416.0,424.0 L 425.0,434.0 L 430.0,436.0 L 439.0,446.0 L 444.0,448.0 L 453.0,458.0 L 458.0,460.0 L 479.0,480.0 L 484.0,482.0 L 491.0,490.0 L 496.0,492.0 L 503.0,500.0 L 509.0,503.0 L 520.0,503.0 L 526.0,500.0 L 549.0,476.0 L 554.0,474.0 L 564.0,462.0 L 567.0,456.0 L 567.0,449.0 L 562.0,439.0 L 553.0,433.0 L 548.0,427.0 L 543.0,425.0 L 534.0,415.0 L 529.0,413.0 L 522.0,405.0 L 517.0,403.0 L 492.0,379.0 L 487.0,377.0 L 480.0,369.0 L 475.0,367.0 L 466.0,357.0 L 461.0,355.0 L 446.0,341.0 L 440.0,338.0 L 433.0,338.0 Z M 447.0,359.0 L 449.0,357.0 L 452.0,357.0 L 458.0,360.0 L 459.0,362.0 L 460.0,362.0 L 461.0,364.0 L 467.0,369.0 L 467.0,370.0 L 472.0,372.0 L 473.0,374.0 L 474.0,374.0 L 475.0,376.0 L 481.0,381.0 L 481.0,382.0 L 486.0,384.0 L 487.0,386.0 L 488.0,386.0 L 489.0,388.0 L 495.0,393.0 L 495.0,394.0 L 500.0,396.0 L 501.0,398.0 L 507.0,403.0 L 507.0,404.0 L 512.0,406.0 L 513.0,408.0 L 519.0,413.0 L 519.0,414.0 L 524.0,416.0 L 525.0,418.0 L 526.0,418.0 L 527.0,420.0 L 528.0,420.0 L 529.0,422.0 L 535.0,427.0 L 535.0,428.0 L 540.0,430.0 L 546.0,437.0 L 545.0,442.0 L 537.0,446.0 L 531.0,443.0 L 530.0,441.0 L 524.0,436.0 L 524.0,435.0 L 519.0,433.0 L 518.0,431.0 L 517.0,431.0 L 516.0,429.0 L 515.0,429.0 L 514.0,427.0 L 508.0,422.0 L 508.0,421.0 L 503.0,419.0 L 502.0,417.0 L 496.0,412.0 L 496.0,411.0 L 491.0,409.0 L 490.0,407.0 L 489.0,407.0 L 488.0,405.0 L 482.0,400.0 L 482.0,399.0 L 477.0,397.0 L 476.0,395.0 L 470.0,390.0 L 470.0,389.0 L 465.0,387.0 L 464.0,385.0 L 463.0,385.0 L 462.0,383.0 L 456.0,378.0 L 456.0,377.0 L 451.0,375.0 L 450.0,373.0 L 444.0,368.0 L 444.0,365.0 Z"/>
  <path fill="#8197ae" stroke="none" fill-rule="evenodd" d="M 533.0,799.0 L 532.0,799.0 L 532.0,806.0 L 530.0,808.0 L 527.0,808.0 L 524.0,811.0 L 524.0,820.0 L 525.0,820.0 L 525.0,810.0 L 526.0,809.0 L 532.0,809.0 L 533.0,808.0 Z"/>
  <path fill="#8197ae" stroke="none" fill-rule="evenodd" d="M 482.0,799.0 L 482.0,808.0 L 483.0,809.0 L 512.0,809.0 L 512.0,808.0 L 485.0,808.0 L 483.0,806.0 L 483.0,799.0 Z"/>
  <path fill="#8197ae" stroke="none" fill-rule="evenodd" d="M 456.0,775.0 L 456.0,786.0 L 457.0,787.0 L 469.0,787.0 L 470.0,788.0 L 470.0,796.0 L 471.0,796.0 L 471.0,789.0 L 468.0,786.0 L 459.0,786.0 L 457.0,784.0 L 457.0,775.0 Z"/>
  <path fill="#8197ae" stroke="none" fill-rule="evenodd" d="M 445.0,775.0 L 444.0,775.0 L 444.0,784.0 L 442.0,786.0 L 433.0,786.0 L 430.0,789.0 L 430.0,796.0 L 431.0,796.0 L 431.0,788.0 L 432.0,787.0 L 444.0,787.0 L 445.0,786.0 Z"/>
  <path fill="#8197ae" stroke="none" fill-rule="evenodd" d="M 1008.0,773.0 L 1008.0,820.0 L 1009.0,820.0 L 1009.0,773.0 Z"/>
  <path fill="#8197ae" stroke="none" fill-rule="evenodd" d="M 694.0,773.0 L 694.0,820.0 L 695.0,820.0 L 695.0,773.0 Z"/>
  <path fill="#8197ae" stroke="none" fill-rule="evenodd" d="M 816.0,776.0 L 817.0,776.0 L 817.0,770.0 L 818.0,769.0 L 842.0,769.0 L 842.0,768.0 L 819.0,768.0 L 816.0,771.0 Z"/>
  <path fill="#8197ae" stroke="none" fill-rule="evenodd" d="M 1122.0,756.0 L 1107.0,756.0 L 1105.0,758.0 L 1103.0,758.0 L 1094.0,767.0 L 1094.0,769.0 L 1092.0,771.0 L 1092.0,784.0 L 1093.0,784.0 L 1093.0,770.0 L 1095.0,768.0 L 1095.0,766.0 L 1102.0,759.0 L 1104.0,759.0 L 1106.0,757.0 L 1122.0,757.0 Z"/>
  <path fill="#8197ae" stroke="none" fill-rule="evenodd" d="M 804.0,766.0 L 805.0,766.0 L 805.0,758.0 L 806.0,757.0 L 840.0,757.0 L 841.0,758.0 L 843.0,758.0 L 843.0,757.0 L 842.0,756.0 L 807.0,756.0 L 804.0,759.0 Z"/>
  <path fill="#8197ae" stroke="none" fill-rule="evenodd" d="M 724.0,759.0 L 724.0,768.0 L 725.0,769.0 L 750.0,769.0 L 750.0,768.0 L 727.0,768.0 L 725.0,766.0 L 725.0,758.0 L 726.0,757.0 L 765.0,757.0 L 766.0,758.0 L 766.0,768.0 L 767.0,768.0 L 767.0,759.0 L 764.0,756.0 L 727.0,756.0 Z"/>
  <path fill="#8197ae" stroke="none" fill-rule="evenodd" d="M 628.0,759.0 L 628.0,760.0 L 629.0,760.0 L 629.0,758.0 L 630.0,757.0 L 665.0,757.0 L 666.0,758.0 L 666.0,766.0 L 664.0,768.0 L 641.0,768.0 L 641.0,769.0 L 666.0,769.0 L 667.0,768.0 L 667.0,759.0 L 664.0,756.0 L 631.0,756.0 Z"/>
  <path fill="#8197ae" stroke="none" fill-rule="evenodd" d="M 513.0,756.0 L 508.0,761.0 L 508.0,763.0 L 505.0,766.0 L 509.0,762.0 L 509.0,760.0 L 512.0,757.0 L 523.0,757.0 L 524.0,758.0 L 524.0,796.0 L 525.0,796.0 L 525.0,759.0 L 522.0,756.0 Z"/>
  <path fill="#8197ae" stroke="none" fill-rule="evenodd" d="M 259.0,651.0 L 261.0,653.0 L 542.0,653.0 Z"/>
  <path fill="#8197ae" stroke="none" fill-rule="evenodd" d="M 787.0,551.0 L 789.0,553.0 L 818.0,553.0 L 820.0,555.0 L 820.0,564.0 L 821.0,564.0 L 821.0,553.0 L 820.0,552.0 L 788.0,552.0 Z"/>
  <path fill="#8197ae" stroke="none" fill-rule="evenodd" d="M 576.0,529.0 L 576.0,642.0 L 577.0,642.0 L 577.0,529.0 Z"/>
  <path fill="#8197ae" stroke="none" fill-rule="evenodd" d="M 1030.0,523.0 L 1028.0,523.0 L 1028.0,564.0 L 1029.0,564.0 L 1029.0,527.0 L 1030.0,526.0 Z"/>
  <path fill="#8197ae" stroke="none" fill-rule="evenodd" d="M 893.0,523.0 L 893.0,524.0 L 890.0,527.0 L 890.0,529.0 L 886.0,533.0 L 886.0,535.0 L 885.0,536.0 L 887.0,534.0 L 887.0,532.0 L 891.0,528.0 L 891.0,526.0 L 892.0,525.0 L 894.0,527.0 L 894.0,564.0 L 895.0,564.0 L 895.0,523.0 Z"/>
  <path fill="#8197ae" stroke="none" fill-rule="evenodd" d="M 854.0,523.0 L 852.0,523.0 L 852.0,564.0 L 853.0,564.0 L 853.0,529.0 L 855.0,527.0 L 856.0,528.0 L 855.0,527.0 L 855.0,525.0 L 854.0,524.0 Z"/>
  <path fill="#8197ae" stroke="none" fill-rule="evenodd" d="M 1146.0,510.0 L 1127.0,510.0 L 1126.0,511.0 L 1126.0,564.0 L 1127.0,564.0 L 1127.0,513.0 L 1129.0,511.0 L 1146.0,511.0 Z"/>
  <path fill="#8197ae" stroke="none" fill-rule="evenodd" d="M 820.0,509.0 L 819.0,510.0 L 787.0,510.0 L 786.0,511.0 L 786.0,524.0 L 787.0,525.0 L 814.0,525.0 L 814.0,524.0 L 789.0,524.0 L 787.0,522.0 L 787.0,513.0 L 789.0,511.0 L 818.0,511.0 Z"/>
  <path fill="#8197ae" stroke="none" fill-rule="evenodd" d="M 1161.0,496.0 L 1160.0,497.0 L 1160.0,564.0 L 1161.0,564.0 L 1161.0,499.0 L 1163.0,497.0 L 1174.0,497.0 L 1176.0,499.0 L 1176.0,564.0 L 1177.0,564.0 L 1177.0,497.0 L 1176.0,496.0 Z"/>
  <path fill="#8197ae" stroke="none" fill-rule="evenodd" d="M 1146.0,496.0 L 1091.0,496.0 L 1088.0,499.0 L 1088.0,508.0 L 1091.0,511.0 L 1109.0,511.0 L 1110.0,512.0 L 1110.0,564.0 L 1111.0,564.0 L 1111.0,513.0 L 1108.0,510.0 L 1090.0,510.0 L 1089.0,509.0 L 1089.0,498.0 L 1090.0,497.0 L 1146.0,497.0 Z"/>
  <path fill="#8197ae" stroke="none" fill-rule="evenodd" d="M 1028.0,496.0 L 1013.0,496.0 L 1012.0,497.0 L 1012.0,564.0 L 1013.0,564.0 L 1013.0,499.0 L 1015.0,497.0 L 1028.0,497.0 Z"/>
  <path fill="#8197ae" stroke="none" fill-rule="evenodd" d="M 893.0,496.0 L 893.0,497.0 L 909.0,497.0 L 910.0,498.0 L 910.0,564.0 L 911.0,564.0 L 911.0,499.0 L 908.0,496.0 Z"/>
  <path fill="#8197ae" stroke="none" fill-rule="evenodd" d="M 852.0,496.0 L 837.0,496.0 L 836.0,497.0 L 836.0,564.0 L 837.0,564.0 L 837.0,499.0 L 839.0,497.0 L 853.0,497.0 L 854.0,498.0 Z"/>
  <path fill="#8197ae" stroke="none" fill-rule="evenodd" d="M 771.0,496.0 L 771.0,497.0 L 819.0,497.0 L 820.0,498.0 L 818.0,496.0 Z"/>
  <path fill="#8197ae" stroke="none" fill-rule="evenodd" d="M 699.0,496.0 L 699.0,497.0 L 732.0,497.0 L 732.0,496.0 Z"/>
  <path fill="#8197ae" stroke="none" fill-rule="evenodd" d="M 233.0,451.0 L 252.0,470.0 L 252.0,644.0 L 254.0,646.0 L 253.0,645.0 L 253.0,471.0 Z"/>
  <path fill="#8197ae" stroke="none" fill-rule="evenodd" d="M 228.0,449.0 L 228.0,650.0 L 229.0,650.0 L 229.0,449.0 Z"/>
  <path fill="#8197ae" stroke="none" fill-rule="evenodd" d="M 1221.0,363.0 L 1221.0,364.0 L 1219.0,366.0 L 1220.0,365.0 L 1222.0,367.0 L 1222.0,458.0 L 1223.0,458.0 L 1223.0,363.0 Z"/>
  <path fill="#8197ae" stroke="none" fill-rule="evenodd" d="M 736.0,363.0 L 734.0,363.0 L 734.0,458.0 L 735.0,458.0 L 735.0,367.0 L 737.0,365.0 L 738.0,366.0 L 738.0,368.0 L 742.0,372.0 L 742.0,374.0 L 744.0,376.0 L 743.0,375.0 L 743.0,373.0 L 739.0,369.0 L 739.0,367.0 L 736.0,364.0 Z"/>
  <path fill="#8197ae" stroke="none" fill-rule="evenodd" d="M 1124.0,361.0 L 1122.0,361.0 L 1122.0,458.0 L 1123.0,458.0 L 1123.0,367.0 L 1125.0,365.0 L 1126.0,366.0 L 1125.0,365.0 L 1125.0,363.0 L 1124.0,362.0 Z"/>
  <path fill="#8197ae" stroke="none" fill-rule="evenodd" d="M 871.0,299.0 L 870.0,299.0 L 870.0,456.0 L 868.0,458.0 L 865.0,458.0 L 865.0,459.0 L 870.0,459.0 L 871.0,458.0 Z"/>
  <path fill="#8197ae" stroke="none" fill-rule="evenodd" d="M 698.0,299.0 L 698.0,458.0 L 700.0,459.0 L 699.0,456.0 L 699.0,299.0 Z"/>
  <path fill="#f1a43e" stroke="none" fill-rule="evenodd" d="M 836.0,698.0 L 834.0,696.0 L 829.0,696.0 L 828.0,697.0 L 828.0,709.0 L 827.0,710.0 L 821.0,710.0 L 821.0,711.0 L 826.0,711.0 L 829.0,708.0 L 829.0,699.0 L 831.0,697.0 L 835.0,697.0 Z"/>
  <path fill="#f1a43e" stroke="none" fill-rule="evenodd" d="M 1094.0,677.0 L 1094.0,708.0 L 1097.0,711.0 L 1102.0,711.0 L 1102.0,710.0 L 1096.0,710.0 L 1095.0,709.0 L 1095.0,677.0 Z"/>
  <path fill="#f1a43e" stroke="none" fill-rule="evenodd" d="M 1030.0,669.0 L 1030.0,710.0 L 1031.0,711.0 L 1038.0,711.0 L 1038.0,710.0 L 1033.0,710.0 L 1031.0,708.0 L 1031.0,669.0 Z"/>
  <path fill="#f1a43e" stroke="none" fill-rule="evenodd" d="M 957.0,669.0 L 956.0,669.0 L 956.0,708.0 L 954.0,710.0 L 951.0,710.0 L 949.0,708.0 L 949.0,685.0 L 948.0,684.0 L 947.0,684.0 L 946.0,685.0 L 946.0,687.0 L 942.0,691.0 L 942.0,693.0 L 941.0,694.0 L 943.0,692.0 L 943.0,690.0 L 946.0,687.0 L 948.0,689.0 L 948.0,710.0 L 949.0,711.0 L 956.0,711.0 L 957.0,710.0 Z"/>
  <path fill="#f1a43e" stroke="none" fill-rule="evenodd" d="M 912.0,669.0 L 912.0,708.0 L 915.0,711.0 L 920.0,711.0 L 920.0,710.0 L 914.0,710.0 L 913.0,709.0 L 913.0,669.0 Z"/>
  <path fill="#f1a43e" stroke="none" fill-rule="evenodd" d="M 1068.0,668.0 L 1067.0,668.0 L 1067.0,670.0 L 1068.0,671.0 L 1068.0,709.0 L 1067.0,710.0 L 1060.0,710.0 L 1057.0,707.0 L 1061.0,711.0 L 1066.0,711.0 L 1069.0,708.0 L 1069.0,669.0 Z"/>
  <path fill="#f1a43e" stroke="none" fill-rule="evenodd" d="M 869.0,668.0 L 868.0,669.0 L 868.0,708.0 L 871.0,711.0 L 896.0,711.0 L 899.0,708.0 L 899.0,705.0 L 896.0,702.0 L 879.0,702.0 L 879.0,703.0 L 897.0,703.0 L 898.0,704.0 L 898.0,709.0 L 897.0,710.0 L 870.0,710.0 L 869.0,709.0 L 869.0,671.0 L 870.0,670.0 L 870.0,668.0 Z"/>
  <path fill="#f1a43e" stroke="none" fill-rule="evenodd" d="M 778.0,668.0 L 777.0,668.0 L 777.0,669.0 L 779.0,669.0 L 780.0,670.0 L 780.0,709.0 L 779.0,710.0 L 772.0,710.0 L 771.0,709.0 L 771.0,670.0 L 772.0,669.0 L 770.0,671.0 L 770.0,708.0 L 773.0,711.0 L 778.0,711.0 L 781.0,708.0 L 781.0,671.0 Z"/>
  <path fill="#f1a43e" stroke="none" fill-rule="evenodd" d="M 1134.0,620.0 L 1133.0,620.0 L 1132.0,621.0 L 1132.0,646.0 L 1133.0,646.0 L 1133.0,623.0 L 1134.0,622.0 Z"/>
  <path fill="#f1a43e" stroke="none" fill-rule="evenodd" d="M 1181.0,604.0 L 1179.0,606.0 L 1180.0,605.0 L 1186.0,605.0 L 1188.0,607.0 L 1188.0,646.0 L 1189.0,646.0 L 1189.0,605.0 L 1188.0,604.0 Z"/>
  <path fill="#f1a43e" stroke="none" fill-rule="evenodd" d="M 1155.0,604.0 L 1155.0,605.0 L 1160.0,605.0 L 1162.0,607.0 L 1162.0,646.0 L 1163.0,646.0 L 1163.0,605.0 L 1162.0,604.0 Z"/>
  <path fill="#f1a43e" stroke="none" fill-rule="evenodd" d="M 1030.0,610.0 L 1031.0,610.0 L 1031.0,607.0 L 1033.0,605.0 L 1062.0,605.0 L 1062.0,604.0 L 1031.0,604.0 L 1030.0,605.0 Z"/>
  <path fill="#f1a43e" stroke="none" fill-rule="evenodd" d="M 957.0,604.0 L 956.0,605.0 L 956.0,606.0 L 958.0,606.0 L 959.0,605.0 L 962.0,605.0 L 964.0,607.0 L 964.0,644.0 L 963.0,645.0 L 963.0,647.0 L 964.0,647.0 L 965.0,646.0 L 965.0,605.0 L 964.0,604.0 Z"/>
  <path fill="#f1a43e" stroke="none" fill-rule="evenodd" d="M 934.0,604.0 L 927.0,604.0 L 926.0,605.0 L 926.0,646.0 L 927.0,646.0 L 927.0,607.0 L 929.0,605.0 L 935.0,605.0 L 940.0,610.0 L 940.0,612.0 L 944.0,616.0 L 941.0,613.0 L 941.0,611.0 Z"/>
  <path fill="#f1a43e" stroke="none" fill-rule="evenodd" d="M 828.0,604.0 L 821.0,604.0 L 820.0,605.0 L 820.0,646.0 L 821.0,646.0 L 821.0,607.0 L 823.0,605.0 L 828.0,605.0 Z"/>
  <path fill="#f1a43e" stroke="none" fill-rule="evenodd" d="M 953.0,593.0 L 952.0,592.0 L 947.0,592.0 L 942.0,597.0 L 942.0,600.0 L 943.0,601.0 L 946.0,601.0 L 953.0,594.0 Z M 950.0,593.0 L 952.0,595.0 L 947.0,600.0 L 945.0,600.0 L 943.0,598.0 L 943.0,596.0 L 946.0,593.0 Z"/>
  <path fill="#f1a43e" stroke="none" fill-rule="evenodd" d="M 372.0,517.0 L 369.0,517.0 L 360.0,527.0 L 357.0,528.0 L 350.0,536.0 L 347.0,537.0 L 344.0,542.0 L 339.0,545.0 L 294.0,591.0 L 289.0,593.0 L 287.0,598.0 L 285.0,599.0 L 282.0,605.0 L 282.0,618.0 L 284.0,622.0 L 292.0,630.0 L 285.0,623.0 L 287.0,621.0 L 290.0,621.0 L 294.0,623.0 L 306.0,618.0 L 330.0,594.0 L 332.0,589.0 L 385.0,536.0 L 388.0,535.0 L 388.0,533.0 Z"/>
  <path fill="#f1a43e" stroke="none" fill-rule="evenodd" d="M 340.0,413.0 L 339.0,413.0 L 338.0,412.0 L 338.0,411.0 L 337.0,411.0 L 336.0,410.0 L 336.0,409.0 L 335.0,409.0 L 334.0,408.0 L 334.0,407.0 L 333.0,407.0 L 332.0,406.0 L 332.0,405.0 L 331.0,405.0 L 330.0,404.0 L 327.0,404.0 L 326.0,405.0 L 325.0,405.0 L 325.0,406.0 L 324.0,407.0 L 321.0,408.0 L 318.0,412.0 L 315.0,413.0 L 315.0,414.0 L 314.0,415.0 L 313.0,415.0 L 313.0,416.0 L 312.0,417.0 L 311.0,417.0 L 311.0,418.0 L 310.0,419.0 L 309.0,419.0 L 309.0,420.0 L 308.0,421.0 L 307.0,421.0 L 307.0,422.0 L 306.0,423.0 L 305.0,423.0 L 305.0,424.0 L 304.0,425.0 L 303.0,425.0 L 303.0,426.0 L 302.0,427.0 L 301.0,427.0 L 301.0,428.0 L 300.0,429.0 L 299.0,429.0 L 299.0,430.0 L 298.0,431.0 L 297.0,431.0 L 297.0,432.0 L 296.0,433.0 L 291.0,435.0 L 291.0,436.0 L 290.0,437.0 L 289.0,437.0 L 289.0,438.0 L 288.0,439.0 L 287.0,439.0 L 287.0,440.0 L 286.0,441.0 L 285.0,441.0 L 285.0,442.0 L 284.0,443.0 L 283.0,443.0 L 283.0,444.0 L 282.0,445.0 L 281.0,445.0 L 280.0,448.0 L 281.0,449.0 L 283.0,454.0 L 288.0,456.0 L 289.0,457.0 L 289.0,458.0 L 290.0,458.0 L 291.0,459.0 L 291.0,460.0 L 292.0,460.0 L 293.0,461.0 L 298.0,461.0 L 299.0,460.0 L 300.0,460.0 L 300.0,459.0 L 301.0,458.0 L 302.0,458.0 L 302.0,457.0 L 303.0,456.0 L 304.0,456.0 L 304.0,455.0 L 305.0,454.0 L 306.0,454.0 L 306.0,453.0 L 307.0,452.0 L 308.0,452.0 L 308.0,451.0 L 309.0,450.0 L 310.0,450.0 L 310.0,449.0 L 311.0,448.0 L 312.0,448.0 L 312.0,447.0 L 313.0,446.0 L 314.0,446.0 L 314.0,445.0 L 315.0,444.0 L 320.0,442.0 L 320.0,441.0 L 321.0,440.0 L 322.0,440.0 L 322.0,439.0 L 323.0,438.0 L 324.0,438.0 L 324.0,437.0 L 325.0,436.0 L 326.0,436.0 L 326.0,435.0 L 327.0,434.0 L 328.0,434.0 L 328.0,433.0 L 329.0,432.0 L 330.0,432.0 L 330.0,431.0 L 331.0,430.0 L 332.0,430.0 L 332.0,429.0 L 333.0,428.0 L 334.0,428.0 L 334.0,427.0 L 335.0,426.0 L 336.0,426.0 L 336.0,425.0 L 337.0,424.0 L 338.0,424.0 L 338.0,423.0 L 339.0,422.0 L 340.0,422.0 L 340.0,421.0 L 341.0,420.0 L 341.0,415.0 L 340.0,414.0 Z"/>
  <path fill="#f1a43e" stroke="none" fill-rule="evenodd" d="M 445.0,365.0 L 445.0,368.0 L 446.0,368.0 L 447.0,370.0 L 451.0,373.0 L 451.0,374.0 L 456.0,376.0 L 457.0,378.0 L 458.0,378.0 L 459.0,380.0 L 460.0,380.0 L 461.0,382.0 L 465.0,385.0 L 465.0,386.0 L 470.0,388.0 L 471.0,390.0 L 472.0,390.0 L 473.0,392.0 L 477.0,395.0 L 477.0,396.0 L 482.0,398.0 L 483.0,400.0 L 484.0,400.0 L 485.0,402.0 L 486.0,402.0 L 487.0,404.0 L 491.0,407.0 L 491.0,408.0 L 496.0,410.0 L 497.0,412.0 L 498.0,412.0 L 499.0,414.0 L 503.0,417.0 L 503.0,418.0 L 508.0,420.0 L 509.0,422.0 L 510.0,422.0 L 511.0,424.0 L 512.0,424.0 L 513.0,426.0 L 514.0,426.0 L 515.0,428.0 L 519.0,431.0 L 519.0,432.0 L 524.0,434.0 L 525.0,436.0 L 526.0,436.0 L 527.0,438.0 L 531.0,441.0 L 531.0,442.0 L 537.0,445.0 L 544.0,442.0 L 545.0,440.0 L 544.0,435.0 L 543.0,435.0 L 540.0,431.0 L 535.0,429.0 L 534.0,427.0 L 533.0,427.0 L 532.0,425.0 L 531.0,425.0 L 530.0,423.0 L 529.0,423.0 L 528.0,421.0 L 524.0,418.0 L 524.0,417.0 L 519.0,415.0 L 518.0,413.0 L 517.0,413.0 L 516.0,411.0 L 512.0,408.0 L 512.0,407.0 L 507.0,405.0 L 506.0,403.0 L 505.0,403.0 L 504.0,401.0 L 500.0,398.0 L 500.0,397.0 L 495.0,395.0 L 494.0,393.0 L 493.0,393.0 L 492.0,391.0 L 491.0,391.0 L 490.0,389.0 L 486.0,386.0 L 486.0,385.0 L 481.0,383.0 L 480.0,381.0 L 479.0,381.0 L 478.0,379.0 L 477.0,379.0 L 476.0,377.0 L 472.0,374.0 L 472.0,373.0 L 467.0,371.0 L 466.0,369.0 L 465.0,369.0 L 464.0,367.0 L 463.0,367.0 L 462.0,365.0 L 458.0,362.0 L 458.0,361.0 L 452.0,358.0 L 449.0,358.0 Z"/>
  <path fill="#f1a43e" stroke="none" fill-rule="evenodd" d="M 264.0,316.0 L 259.0,317.0 L 254.0,323.0 L 249.0,325.0 L 236.0,339.0 L 231.0,341.0 L 216.0,357.0 L 211.0,359.0 L 196.0,375.0 L 193.0,376.0 L 190.0,381.0 L 191.0,384.0 L 251.0,443.0 L 254.0,442.0 L 259.0,436.0 L 268.0,430.0 L 281.0,416.0 L 286.0,414.0 L 307.0,392.0 L 312.0,390.0 L 323.0,378.0 L 318.0,369.0 Z M 231.0,367.0 L 234.0,368.0 L 235.0,369.0 L 235.0,370.0 L 236.0,370.0 L 237.0,371.0 L 237.0,372.0 L 238.0,372.0 L 239.0,373.0 L 239.0,374.0 L 240.0,374.0 L 241.0,375.0 L 241.0,376.0 L 242.0,376.0 L 243.0,377.0 L 243.0,378.0 L 244.0,379.0 L 245.0,382.0 L 246.0,382.0 L 247.0,383.0 L 247.0,384.0 L 248.0,384.0 L 249.0,385.0 L 249.0,386.0 L 250.0,386.0 L 251.0,387.0 L 251.0,388.0 L 252.0,388.0 L 253.0,389.0 L 253.0,390.0 L 254.0,390.0 L 255.0,391.0 L 255.0,392.0 L 256.0,392.0 L 257.0,393.0 L 257.0,394.0 L 258.0,394.0 L 259.0,395.0 L 259.0,396.0 L 260.0,396.0 L 261.0,397.0 L 261.0,398.0 L 262.0,398.0 L 263.0,399.0 L 263.0,400.0 L 264.0,400.0 L 265.0,401.0 L 265.0,402.0 L 266.0,402.0 L 267.0,403.0 L 267.0,404.0 L 268.0,404.0 L 269.0,405.0 L 269.0,406.0 L 270.0,406.0 L 271.0,407.0 L 271.0,408.0 L 272.0,408.0 L 273.0,409.0 L 273.0,410.0 L 274.0,410.0 L 275.0,411.0 L 275.0,412.0 L 276.0,413.0 L 276.0,416.0 L 275.0,417.0 L 273.0,417.0 L 272.0,416.0 L 272.0,415.0 L 271.0,415.0 L 270.0,414.0 L 270.0,413.0 L 269.0,413.0 L 268.0,412.0 L 268.0,411.0 L 267.0,411.0 L 266.0,410.0 L 266.0,409.0 L 265.0,409.0 L 264.0,408.0 L 264.0,407.0 L 263.0,407.0 L 262.0,406.0 L 262.0,405.0 L 261.0,405.0 L 260.0,404.0 L 260.0,403.0 L 259.0,403.0 L 258.0,402.0 L 258.0,401.0 L 257.0,401.0 L 256.0,400.0 L 256.0,399.0 L 255.0,399.0 L 254.0,398.0 L 254.0,397.0 L 253.0,397.0 L 252.0,396.0 L 252.0,395.0 L 251.0,395.0 L 250.0,394.0 L 250.0,393.0 L 249.0,393.0 L 248.0,392.0 L 248.0,391.0 L 247.0,391.0 L 246.0,390.0 L 246.0,389.0 L 245.0,389.0 L 244.0,388.0 L 244.0,387.0 L 243.0,387.0 L 242.0,386.0 L 242.0,385.0 L 241.0,385.0 L 240.0,384.0 L 240.0,383.0 L 239.0,383.0 L 238.0,382.0 L 238.0,381.0 L 237.0,381.0 L 236.0,380.0 L 236.0,379.0 L 235.0,379.0 L 234.0,378.0 L 234.0,377.0 L 233.0,377.0 L 232.0,376.0 L 232.0,375.0 L 231.0,374.0 L 231.0,373.0 L 229.0,370.0 L 229.0,369.0 Z M 253.0,341.0 L 256.0,342.0 L 257.0,343.0 L 257.0,344.0 L 258.0,344.0 L 259.0,345.0 L 259.0,346.0 L 260.0,346.0 L 261.0,347.0 L 261.0,348.0 L 262.0,348.0 L 263.0,349.0 L 263.0,350.0 L 264.0,350.0 L 265.0,351.0 L 265.0,352.0 L 266.0,352.0 L 267.0,353.0 L 267.0,354.0 L 268.0,354.0 L 269.0,355.0 L 269.0,356.0 L 270.0,356.0 L 271.0,357.0 L 271.0,358.0 L 272.0,358.0 L 273.0,359.0 L 273.0,360.0 L 274.0,360.0 L 275.0,361.0 L 275.0,362.0 L 276.0,362.0 L 277.0,363.0 L 277.0,364.0 L 278.0,364.0 L 279.0,365.0 L 279.0,366.0 L 280.0,366.0 L 281.0,367.0 L 281.0,368.0 L 282.0,368.0 L 283.0,369.0 L 284.0,372.0 L 285.0,373.0 L 286.0,373.0 L 288.0,375.0 L 289.0,378.0 L 290.0,378.0 L 291.0,379.0 L 291.0,380.0 L 292.0,380.0 L 293.0,381.0 L 293.0,382.0 L 294.0,382.0 L 295.0,383.0 L 295.0,384.0 L 296.0,384.0 L 297.0,385.0 L 297.0,386.0 L 298.0,386.0 L 299.0,387.0 L 299.0,388.0 L 300.0,388.0 L 301.0,389.0 L 301.0,390.0 L 302.0,390.0 L 303.0,391.0 L 303.0,392.0 L 304.0,393.0 L 304.0,395.0 L 303.0,396.0 L 301.0,396.0 L 300.0,395.0 L 299.0,395.0 L 298.0,394.0 L 298.0,393.0 L 297.0,393.0 L 296.0,392.0 L 296.0,391.0 L 295.0,391.0 L 294.0,390.0 L 294.0,389.0 L 293.0,389.0 L 292.0,388.0 L 292.0,387.0 L 291.0,387.0 L 290.0,386.0 L 290.0,385.0 L 289.0,385.0 L 288.0,384.0 L 288.0,383.0 L 287.0,383.0 L 286.0,382.0 L 286.0,381.0 L 285.0,381.0 L 284.0,380.0 L 284.0,379.0 L 283.0,379.0 L 282.0,378.0 L 282.0,377.0 L 281.0,377.0 L 280.0,376.0 L 280.0,375.0 L 279.0,375.0 L 278.0,374.0 L 278.0,373.0 L 277.0,373.0 L 276.0,372.0 L 275.0,369.0 L 274.0,368.0 L 273.0,368.0 L 271.0,366.0 L 270.0,363.0 L 269.0,363.0 L 268.0,362.0 L 268.0,361.0 L 267.0,361.0 L 266.0,360.0 L 266.0,359.0 L 265.0,359.0 L 264.0,358.0 L 264.0,357.0 L 263.0,357.0 L 262.0,356.0 L 262.0,355.0 L 261.0,355.0 L 260.0,354.0 L 260.0,353.0 L 259.0,353.0 L 258.0,352.0 L 258.0,351.0 L 257.0,351.0 L 256.0,350.0 L 256.0,349.0 L 255.0,349.0 L 254.0,348.0 L 254.0,347.0 L 253.0,347.0 L 252.0,346.0 L 251.0,343.0 Z"/>
</svg>
